<svg width="440" height="236" viewBox="0 0 440 236" fill="none" xmlns="http://www.w3.org/2000/svg">
<g clip-path="url(#clip0_39_328)">
<path d="M380.116 7.02747C380.498 7.0184 380.879 7.00934 381.272 7C383.545 7.43423 384.77 8.34655 386.071 10.2077C386.935 11.6394 387.749 13.0909 388.554 14.5568C388.861 15.1044 389.169 15.6516 389.478 16.1984C390.117 17.3332 390.754 18.4696 391.388 19.6075C392.84 22.2063 394.33 24.7824 395.819 27.3595C396.108 27.8609 396.397 28.3622 396.695 28.8788C398.796 32.5205 400.934 36.1393 403.085 39.7521C405.983 44.6203 408.814 49.522 411.616 54.4456C414.416 59.3653 417.264 64.2567 420.124 69.1419C424.085 75.909 428.046 82.6771 431.943 89.4815C433.34 91.9195 434.752 94.3443 436.214 96.7437C436.478 97.1831 436.741 97.6226 437.013 98.0754C437.501 98.8897 437.998 99.6994 438.503 100.503C440.092 103.178 440.572 105.379 440.146 108.483C439.332 110.494 438.344 111.324 436.396 112.233C434.883 112.438 433.383 112.422 431.859 112.411C431.399 112.413 430.939 112.415 430.465 112.418C428.923 112.423 427.382 112.419 425.84 112.415C424.735 112.416 423.63 112.419 422.525 112.422C419.523 112.428 416.52 112.426 413.518 112.421C411.643 112.419 409.769 112.419 407.894 112.421C407.427 112.421 407.427 112.421 406.951 112.421C406.319 112.422 405.686 112.422 405.054 112.423C399.126 112.427 393.197 112.422 387.269 112.415C382.182 112.408 377.096 112.409 372.009 112.416C366.102 112.423 360.194 112.426 354.287 112.422C353.657 112.422 353.027 112.421 352.397 112.421C352.087 112.421 351.777 112.42 351.458 112.42C349.274 112.419 347.09 112.421 344.906 112.424C341.967 112.428 339.028 112.425 336.088 112.417C335.008 112.415 333.928 112.416 332.848 112.419C331.376 112.423 329.905 112.418 328.433 112.411C328.003 112.414 327.574 112.417 327.132 112.421C324.882 112.4 323.38 112.287 321.552 110.826C319.964 109.019 319.975 107.324 320.008 105.025C320.228 103.056 321.048 101.649 322.079 99.9865C322.287 99.6321 322.495 99.2778 322.71 98.9128C323.166 98.1372 323.627 97.3642 324.091 96.5935C324.865 95.3047 325.622 94.0071 326.375 92.7062C327.758 90.3181 329.151 87.9357 330.547 85.555C331.917 83.2186 333.283 80.8801 334.648 78.5411C334.917 78.0797 335.186 77.6183 335.464 77.1429C337.478 73.6893 339.478 70.2279 341.474 66.7638C345.079 60.5059 348.718 54.2682 352.363 48.033C355.466 42.7223 358.559 37.406 361.63 32.0763C364.739 26.6816 367.854 21.2903 371.01 15.9227C371.634 14.8593 372.252 13.7929 372.869 12.7257C373.195 12.1737 373.52 11.6219 373.847 11.0704C374.108 10.6227 374.37 10.1749 374.64 9.71362C376.121 7.76885 377.694 7.03129 380.116 7.02747Z" fill="#2671CC"/>
<path d="M341.708 66.2949C343.683 66.5595 345.3 67.0183 347.11 67.8458C347.617 68.0757 348.125 68.3057 348.648 68.5425C349.2 68.7966 349.752 69.0507 350.321 69.3125C350.915 69.5823 351.508 69.8518 352.101 70.1209C353.401 70.7105 354.699 71.3018 355.997 71.8941C359.42 73.4535 362.852 74.9918 366.282 76.5335C367.896 77.2591 369.51 77.9856 371.124 78.7121C375.409 80.641 379.695 82.5665 383.984 84.4883C384.526 84.7316 385.069 84.9749 385.629 85.2256C388.331 86.4366 391.034 87.646 393.738 88.8535C400.272 91.7741 406.791 94.727 413.297 97.71C416.977 99.3974 420.66 101.079 424.356 102.731C424.666 102.87 424.976 103.008 425.295 103.151C426.743 103.797 428.191 104.442 429.641 105.085C432.715 106.454 435.745 107.883 438.739 109.42C438.739 109.884 438.739 110.348 438.739 110.826C436.68 112.634 434.447 112.43 431.859 112.411C431.399 112.413 430.939 112.415 430.465 112.418C428.923 112.423 427.382 112.419 425.84 112.414C424.735 112.416 423.63 112.419 422.525 112.422C419.523 112.428 416.52 112.426 413.518 112.421C411.643 112.419 409.769 112.419 407.894 112.421C407.427 112.421 407.427 112.421 406.951 112.421C406.319 112.422 405.686 112.422 405.054 112.423C399.126 112.427 393.197 112.422 387.269 112.414C382.182 112.408 377.096 112.409 372.009 112.416C366.102 112.423 360.194 112.426 354.287 112.422C353.657 112.421 353.027 112.421 352.397 112.421C352.087 112.42 351.777 112.42 351.458 112.42C349.274 112.419 347.09 112.421 344.906 112.424C341.967 112.428 339.028 112.425 336.088 112.417C335.008 112.415 333.928 112.416 332.848 112.419C331.376 112.423 329.905 112.418 328.433 112.411C328.003 112.414 327.574 112.417 327.132 112.42C324.882 112.4 323.38 112.287 321.552 110.826C319.964 109.019 319.975 107.324 320.008 105.025C320.228 103.056 321.048 101.649 322.079 99.9863C322.287 99.632 322.495 99.2777 322.71 98.9126C323.166 98.1371 323.627 97.3641 324.091 96.5934C324.865 95.3046 325.622 94.007 326.375 92.7061C327.754 90.3262 329.142 87.9521 330.533 85.5796C331.976 83.1179 333.414 80.6538 334.853 78.1895C335.126 77.7217 335.399 77.2539 335.68 76.772C337.71 73.2912 339.721 69.8003 341.708 66.2949Z" fill="#2057B5"/>
<path d="M380.116 7.02747C380.497 7.0184 380.879 7.00934 381.272 7C383.545 7.43423 384.77 8.34655 386.07 10.2077C386.934 11.6394 387.749 13.0909 388.554 14.5568C388.861 15.1044 389.169 15.6516 389.478 16.1984C390.117 17.3332 390.754 18.4696 391.388 19.6075C392.839 22.2063 394.33 24.7823 395.819 27.3595C396.103 27.8524 396.387 28.3453 396.679 28.8531C398.254 31.5837 399.846 34.3036 401.457 37.0128C401.631 37.3044 401.804 37.596 401.983 37.8964C402.824 39.3106 403.668 40.7237 404.514 42.1351C404.815 42.6388 405.115 43.1424 405.425 43.6614C405.692 44.1067 405.959 44.552 406.234 45.0107C406.864 46.1388 406.864 46.1388 407.333 47.545C400.892 49.528 394.438 51.454 387.952 53.2865C385.759 53.9075 383.568 54.5353 381.376 55.1622C380.211 55.4952 379.045 55.8282 377.88 56.1606C377.004 56.4114 376.128 56.6654 375.253 56.92C373.495 57.4136 371.73 57.8733 369.962 58.3282C365.87 59.3807 361.793 60.4683 357.733 61.6368C357.334 61.7515 356.934 61.8662 356.522 61.9844C354.927 62.443 353.333 62.9033 351.741 63.3722C350.576 63.7155 349.409 64.0535 348.241 64.3907C347.892 64.4956 347.544 64.6005 347.184 64.7085C345.469 65.1999 344.347 65.415 342.646 64.8888C343.076 64.1429 343.506 63.3971 343.936 62.6512C344.217 62.1641 344.498 61.677 344.788 61.1752C345.419 60.081 346.051 58.9867 346.682 57.8926C348.282 55.1201 349.881 52.3474 351.479 49.5739C355.117 43.2587 358.776 36.9557 362.454 30.6632C363.285 29.2394 364.114 27.8144 364.942 26.389C366.303 24.0481 367.669 21.7106 369.039 19.3745C369.835 18.0101 370.624 16.6416 371.413 15.2727C371.912 14.4187 372.41 13.5648 372.909 12.7111C373.133 12.3191 373.356 11.927 373.586 11.5232C375.232 8.72996 376.666 7.03292 380.116 7.02747Z" fill="#7CBDF3"/>
</g>
<path d="M77.3986 39.0461H42.4471C40.5178 39.0461 38.9521 40.6162 38.9521 42.5515V112.644C38.9521 114.577 40.5178 116.148 42.4471 116.148H77.3988C79.3277 116.148 80.8933 114.577 80.8933 112.644V42.5515C80.8933 40.6162 79.3277 39.0461 77.3986 39.0461Z" fill="#FFC107"/>
<path d="M42.4471 74.0928H7.49594C5.56563 74.0928 4 75.6626 4 77.5974V112.643C4 114.577 5.56563 116.148 7.49594 116.148H42.4471C44.377 116.148 45.9426 114.577 45.9426 112.643V77.5974C45.9426 75.6626 44.377 74.0928 42.4471 74.0928Z" fill="#FFC107"/>
<path d="M112.349 4H77.3983C75.468 4 73.9023 5.56984 73.9023 7.50578V112.644C73.9023 114.577 75.468 116.148 77.3983 116.148H112.349C114.279 116.148 115.845 114.577 115.845 112.644V7.50578C115.845 5.56984 114.28 4 112.349 4Z" fill="#FFA000"/>
<path d="M211.176 49.1209C225.022 41.5385 244.143 30.989 244.143 0H221.066C221.066 17.1429 212.824 21.7582 199.967 29.011C186.121 36.5934 167 47.1429 167 77.8022H190.077C190.077 60.6593 198.319 56.044 211.176 49.1209Z" fill="#FF3C00"/>
<path d="M250.736 41.8682C250.736 59.011 242.494 63.6264 229.637 70.8792C215.791 78.4616 196.67 89.011 196.67 120H219.747C219.747 102.857 227.989 98.2418 240.846 90.989C254.692 83.4066 273.813 72.8572 273.813 41.8682H250.736Z" fill="#FF3C00"/>
<line y1="167.5" x2="440" y2="167.5" stroke="black"/>
<line x1="0.5" y1="148" x2="0.499999" y2="168" stroke="black"/>
<line x1="439.5" y1="148" x2="439.5" y2="168" stroke="black"/>
<path d="M168.671 226L166.239 219.408H157.407L154.975 226H151.391L160.063 203.056H163.647L172.287 226H168.671ZM162.975 209.968C162.911 209.733 162.793 209.381 162.623 208.912C162.473 208.421 162.324 207.931 162.175 207.44C162.025 206.928 161.908 206.512 161.823 206.192C161.716 206.619 161.588 207.088 161.439 207.6C161.311 208.091 161.183 208.549 161.055 208.976C160.927 209.381 160.82 209.712 160.735 209.968L158.431 216.4H165.279L162.975 209.968ZM183.72 208.432C185.725 208.432 187.261 208.933 188.328 209.936C189.395 210.939 189.928 212.549 189.928 214.768V226H186.568V215.248C186.568 213.904 186.28 212.901 185.704 212.24C185.149 211.557 184.253 211.216 183.016 211.216C181.267 211.216 180.051 211.739 179.368 212.784C178.707 213.829 178.376 215.333 178.376 217.296V226H174.984V208.752H177.672L178.152 211.056H178.344C178.728 210.459 179.197 209.968 179.752 209.584C180.307 209.2 180.925 208.912 181.608 208.72C182.291 208.528 182.995 208.432 183.72 208.432ZM201.828 208.432C204.004 208.432 205.626 208.912 206.692 209.872C207.759 210.811 208.292 212.293 208.292 214.32V226H205.892L205.22 223.6H205.092C204.602 224.219 204.09 224.731 203.556 225.136C203.044 225.541 202.447 225.84 201.764 226.032C201.103 226.224 200.292 226.32 199.332 226.32C198.308 226.32 197.38 226.139 196.548 225.776C195.738 225.392 195.098 224.816 194.628 224.048C194.159 223.259 193.924 222.277 193.924 221.104C193.924 219.355 194.586 218.021 195.908 217.104C197.252 216.187 199.29 215.685 202.02 215.6L204.964 215.504V214.544C204.964 213.264 204.676 212.368 204.1 211.856C203.524 211.344 202.714 211.088 201.668 211.088C200.772 211.088 199.919 211.216 199.108 211.472C198.298 211.728 197.53 212.037 196.804 212.4L195.716 209.936C196.527 209.509 197.455 209.157 198.5 208.88C199.567 208.581 200.676 208.432 201.828 208.432ZM202.628 217.776C200.666 217.861 199.3 218.192 198.532 218.768C197.786 219.323 197.412 220.112 197.412 221.136C197.412 222.032 197.679 222.683 198.212 223.088C198.767 223.493 199.46 223.696 200.292 223.696C201.636 223.696 202.746 223.323 203.62 222.576C204.495 221.829 204.932 220.709 204.932 219.216V217.712L202.628 217.776ZM216.907 226H213.515V201.68H216.907V226ZM219.61 208.752H223.258L226.842 218.544C227.034 219.035 227.205 219.515 227.354 219.984C227.503 220.453 227.631 220.923 227.738 221.392C227.866 221.84 227.962 222.288 228.026 222.736H228.154C228.261 222.181 228.431 221.531 228.666 220.784C228.901 220.016 229.146 219.259 229.402 218.512L232.794 208.752H236.442L229.05 228.336C228.645 229.445 228.143 230.395 227.546 231.184C226.949 231.995 226.234 232.613 225.402 233.04C224.591 233.467 223.631 233.68 222.522 233.68C221.989 233.68 221.53 233.648 221.146 233.584C220.762 233.541 220.431 233.488 220.154 233.424V230.736C220.389 230.779 220.666 230.821 220.986 230.864C221.327 230.907 221.679 230.928 222.042 230.928C222.703 230.928 223.269 230.8 223.738 230.544C224.229 230.288 224.634 229.925 224.954 229.456C225.295 228.987 225.583 228.453 225.818 227.856L226.522 226L219.61 208.752ZM245.317 223.568C245.765 223.568 246.224 223.525 246.693 223.44C247.162 223.355 247.568 223.259 247.909 223.152V225.712C247.546 225.883 247.056 226.021 246.437 226.128C245.818 226.256 245.2 226.32 244.581 226.32C243.642 226.32 242.778 226.16 241.989 225.84C241.221 225.52 240.602 224.965 240.133 224.176C239.664 223.387 239.429 222.288 239.429 220.88V211.344H237.029V209.808L239.557 208.528L240.741 204.88H242.821V208.752H247.749V211.344H242.821V220.816C242.821 221.755 243.045 222.448 243.493 222.896C243.962 223.344 244.57 223.568 245.317 223.568ZM254.751 208.752V226H251.359V208.752H254.751ZM253.087 202.192C253.599 202.192 254.047 202.341 254.431 202.64C254.815 202.939 255.007 203.44 255.007 204.144C255.007 204.827 254.815 205.328 254.431 205.648C254.047 205.947 253.599 206.096 253.087 206.096C252.532 206.096 252.063 205.947 251.679 205.648C251.316 205.328 251.135 204.827 251.135 204.144C251.135 203.44 251.316 202.939 251.679 202.64C252.063 202.341 252.532 202.192 253.087 202.192ZM267.022 226.32C265.443 226.32 264.057 226.011 262.862 225.392C261.667 224.773 260.739 223.813 260.078 222.512C259.417 221.189 259.086 219.515 259.086 217.488C259.086 215.355 259.438 213.627 260.142 212.304C260.867 210.981 261.838 210.011 263.054 209.392C264.291 208.752 265.699 208.432 267.278 208.432C268.238 208.432 269.134 208.539 269.966 208.752C270.819 208.944 271.523 209.168 272.078 209.424L271.054 212.176C270.457 211.941 269.817 211.739 269.134 211.568C268.473 211.397 267.843 211.312 267.246 211.312C266.179 211.312 265.294 211.547 264.59 212.016C263.907 212.464 263.395 213.147 263.054 214.064C262.734 214.96 262.574 216.091 262.574 217.456C262.574 218.757 262.745 219.856 263.086 220.752C263.427 221.648 263.929 222.331 264.59 222.8C265.273 223.248 266.115 223.472 267.118 223.472C268.078 223.472 268.921 223.365 269.646 223.152C270.371 222.939 271.054 222.661 271.694 222.32V225.264C271.075 225.627 270.403 225.893 269.678 226.064C268.953 226.235 268.067 226.32 267.022 226.32ZM287.221 221.136C287.221 222.267 286.944 223.216 286.389 223.984C285.835 224.752 285.035 225.339 283.989 225.744C282.944 226.128 281.685 226.32 280.213 226.32C278.997 226.32 277.952 226.224 277.077 226.032C276.224 225.861 275.435 225.605 274.709 225.264V222.288C275.477 222.651 276.363 222.981 277.365 223.28C278.368 223.557 279.349 223.696 280.309 223.696C281.589 223.696 282.507 223.493 283.061 223.088C283.637 222.683 283.925 222.139 283.925 221.456C283.925 221.072 283.819 220.731 283.605 220.432C283.392 220.112 282.987 219.792 282.389 219.472C281.813 219.131 280.96 218.747 279.829 218.32C278.741 217.872 277.813 217.435 277.045 217.008C276.277 216.56 275.691 216.037 275.285 215.44C274.88 214.821 274.677 214.032 274.677 213.072C274.677 211.579 275.275 210.437 276.469 209.648C277.685 208.837 279.285 208.432 281.269 208.432C282.315 208.432 283.296 208.539 284.213 208.752C285.152 208.944 286.059 209.243 286.933 209.648L285.813 212.24C285.323 212.005 284.811 211.813 284.277 211.664C283.765 211.493 283.243 211.355 282.709 211.248C282.197 211.141 281.664 211.088 281.109 211.088C280.085 211.088 279.307 211.248 278.773 211.568C278.24 211.888 277.973 212.336 277.973 212.912C277.973 213.317 278.091 213.669 278.325 213.968C278.581 214.267 279.019 214.565 279.637 214.864C280.256 215.163 281.099 215.525 282.165 215.952C283.232 216.357 284.139 216.773 284.885 217.2C285.653 217.627 286.229 218.149 286.613 218.768C287.019 219.387 287.221 220.176 287.221 221.136Z" fill="black"/>
<defs>
<clipPath id="clip0_39_328">
<rect width="120" height="120" fill="white" transform="translate(320)"/>
</clipPath>
</defs>
</svg>
