<svg width="280" height="236" viewBox="0 0 280 236" fill="none" xmlns="http://www.w3.org/2000/svg">
<line y1="167.5" x2="280" y2="167.5" stroke="black"/>
<line x1="0.5" y1="148" x2="0.499999" y2="168" stroke="black"/>
<line x1="279.5" y1="148" x2="279.5" y2="168" stroke="black"/>
<path d="M109.066 205.808C107.935 205.808 106.922 206.011 106.026 206.416C105.13 206.8 104.362 207.376 103.722 208.144C103.103 208.912 102.623 209.84 102.282 210.928C101.962 212.016 101.802 213.243 101.802 214.608C101.802 216.4 102.068 217.957 102.602 219.28C103.135 220.581 103.935 221.584 105.002 222.288C106.068 222.992 107.412 223.344 109.034 223.344C110.015 223.344 110.954 223.259 111.85 223.088C112.767 222.896 113.695 222.651 114.634 222.352V225.328C113.738 225.669 112.82 225.915 111.882 226.064C110.943 226.235 109.855 226.32 108.618 226.32C106.292 226.32 104.351 225.84 102.794 224.88C101.258 223.92 100.106 222.555 99.3376 220.784C98.5696 219.013 98.1856 216.944 98.1856 214.576C98.1856 212.848 98.4203 211.269 98.8896 209.84C99.3803 208.389 100.084 207.141 101.002 206.096C101.919 205.051 103.05 204.251 104.394 203.696C105.759 203.12 107.327 202.832 109.098 202.832C110.25 202.832 111.38 202.96 112.49 203.216C113.599 203.451 114.602 203.792 115.498 204.24L114.218 207.12C113.471 206.779 112.66 206.48 111.786 206.224C110.932 205.947 110.026 205.808 109.066 205.808ZM122.564 226H119.172V201.68H122.564V226ZM143.09 217.36C143.09 218.789 142.898 220.059 142.514 221.168C142.13 222.277 141.586 223.216 140.882 223.984C140.178 224.752 139.325 225.339 138.322 225.744C137.32 226.128 136.189 226.32 134.93 226.32C133.778 226.32 132.712 226.128 131.73 225.744C130.749 225.339 129.896 224.752 129.17 223.984C128.466 223.216 127.912 222.277 127.506 221.168C127.101 220.059 126.898 218.779 126.898 217.328C126.898 215.429 127.218 213.819 127.858 212.496C128.52 211.173 129.458 210.171 130.674 209.488C131.912 208.784 133.362 208.432 135.026 208.432C136.605 208.432 137.992 208.784 139.186 209.488C140.402 210.171 141.352 211.173 142.034 212.496C142.738 213.819 143.09 215.44 143.09 217.36ZM130.386 217.36C130.386 218.64 130.546 219.749 130.866 220.688C131.186 221.605 131.688 222.309 132.37 222.8C133.053 223.291 133.928 223.536 134.994 223.536C136.061 223.536 136.936 223.291 137.618 222.8C138.301 222.309 138.802 221.605 139.122 220.688C139.442 219.749 139.602 218.64 139.602 217.36C139.602 216.037 139.432 214.928 139.09 214.032C138.77 213.136 138.269 212.453 137.586 211.984C136.925 211.493 136.05 211.248 134.962 211.248C133.362 211.248 132.2 211.781 131.474 212.848C130.749 213.915 130.386 215.419 130.386 217.36ZM162.238 208.752V226H159.518L159.038 223.728H158.878C158.516 224.325 158.046 224.816 157.47 225.2C156.894 225.584 156.265 225.861 155.582 226.032C154.9 226.224 154.196 226.32 153.47 226.32C152.126 226.32 150.985 226.107 150.046 225.68C149.129 225.232 148.425 224.549 147.934 223.632C147.465 222.693 147.23 221.499 147.23 220.048V208.752H150.654V219.536C150.654 220.88 150.932 221.883 151.486 222.544C152.062 223.205 152.948 223.536 154.142 223.536C155.337 223.536 156.276 223.301 156.958 222.832C157.641 222.363 158.121 221.68 158.398 220.784C158.697 219.867 158.846 218.768 158.846 217.488V208.752H162.238ZM173.467 226.32C171.397 226.32 169.723 225.573 168.443 224.08C167.184 222.587 166.555 220.368 166.555 217.424C166.555 214.459 167.195 212.219 168.475 210.704C169.755 209.189 171.44 208.432 173.531 208.432C174.405 208.432 175.163 208.549 175.803 208.784C176.464 208.997 177.029 209.296 177.499 209.68C177.989 210.064 178.405 210.491 178.747 210.96H178.939C178.896 210.661 178.843 210.235 178.779 209.68C178.715 209.104 178.683 208.592 178.683 208.144V201.68H182.075V226H179.419L178.843 223.696H178.683C178.363 224.187 177.957 224.635 177.467 225.04C176.997 225.424 176.432 225.733 175.771 225.968C175.109 226.203 174.341 226.32 173.467 226.32ZM174.267 223.536C175.931 223.536 177.104 223.077 177.787 222.16C178.469 221.221 178.811 219.824 178.811 217.968V217.456C178.811 215.429 178.48 213.883 177.819 212.816C177.179 211.749 175.984 211.216 174.235 211.216C172.848 211.216 171.803 211.781 171.099 212.912C170.395 214.021 170.043 215.547 170.043 217.488C170.043 219.429 170.395 220.923 171.099 221.968C171.803 223.013 172.859 223.536 174.267 223.536Z" fill="black"/>
<path d="M233.502 44.5182L221.997 55.2241L211.32 33.6896L216.845 21.3056C218.243 18.823 220.525 18.8183 221.923 21.3056L233.502 44.5182Z" fill="#FFA000"/>
<path d="M221.997 55.2237L179.001 95.2215L211.32 33.6892L221.997 55.2237Z" fill="#F57F17"/>
<path d="M246.087 28.1539C248.142 26.1783 250.267 26.8521 250.809 29.6514L262 94.6857L224.901 116.92C223.603 117.637 220.165 117.948 220.165 117.948C220.165 117.948 217.027 117.573 215.831 116.909L179 95.2192L246.087 28.1539Z" fill="#FFCA28"/>
<path d="M211.32 33.6893L179.001 95.2216L193.396 5.29049C193.926 2.489 195.521 2.2192 196.944 4.69201L211.32 33.6893Z" fill="#FFA000"/>
<path d="M75.8636 38.4281H79.4571L89.8383 28.0469L90.3707 23.6548C71.0723 6.61903 41.5258 8.48232 24.49 27.7807C19.6987 33.1044 16.3714 39.4928 14.375 46.4136C15.5728 45.8812 16.7707 45.8812 17.9685 46.1474L38.7309 42.687C38.7309 42.687 39.7956 40.9568 40.328 41.0899C49.6444 30.9749 65.2162 29.7771 75.8636 38.4281Z" fill="#EA4335"/>
<path d="M104.745 46.4136C102.349 37.6295 97.4246 29.777 90.6369 23.6548L75.9968 38.2949C82.119 43.3524 85.7125 50.9387 85.4463 58.7911V61.3199C92.6333 61.3199 98.3562 67.1759 98.3562 74.2298C98.3562 81.2837 92.5002 87.1398 85.4463 87.1398H59.6264L57.0977 89.8016V105.373L59.6264 107.902H85.5794C104.212 108.035 119.385 92.9958 119.518 74.3629C119.651 63.3163 114.061 52.802 104.745 46.4136Z" fill="#4285F4"/>
<path d="M33.5399 107.902H59.4929V87.1397H33.5399C31.6766 87.1397 29.8133 86.7404 28.2162 85.9419L24.6227 87.1397L14.1084 97.5209L13.1768 101.114C19.0328 105.64 26.2198 108.035 33.5399 107.902Z" fill="#34A853"/>
<path d="M33.5401 40.5574C14.9072 40.6905 -0.132216 55.863 0.000876586 74.4959C0.000876586 84.8771 4.92529 94.7259 13.177 100.981L28.2164 85.9418C21.6949 83.0138 18.7669 75.2944 21.6949 68.7729C24.6229 62.2514 32.3423 59.3234 38.8638 62.2514C41.7918 63.5823 44.0544 65.8449 45.3853 68.7729L60.4247 53.7335C54.0363 45.4818 44.0544 40.5574 33.5401 40.5574Z" fill="#FBBC05"/>
</svg>
