<svg width="440" height="236" viewBox="0 0 440 236" fill="none" xmlns="http://www.w3.org/2000/svg">
<g clip-path="url(#clip0_39_344)">
<path d="M220 120C253.137 120 280 93.1371 280 60C280 26.8629 253.137 0 220 0C186.863 0 160 26.8629 160 60C160 93.1371 186.863 120 220 120Z" fill="#1976D2"/>
<path d="M238.459 52.1618C238.459 52.1618 233.256 68.675 232.865 70.0765C232.714 68.675 228.925 39 228.925 39C220.053 39 215.331 45.3676 212.835 52.1618C212.835 52.1618 206.519 68.736 206.008 70.1374C205.977 68.8274 205.045 52.3446 205.045 52.3446C204.504 44.0575 197.045 39.0305 191 39.0305L198.278 84C207.571 83.9695 212.564 77.6019 215.18 70.8382C215.18 70.8382 220.744 56.214 220.985 55.5437C221.045 56.1835 224.985 84 224.985 84C234.278 84 239.301 78.0284 242.008 71.5085L255 39C245.797 39 240.955 45.3676 238.459 52.1618Z" fill="white"/>
</g>
<g clip-path="url(#clip1_39_344)">
<path d="M105 0H15C6.71573 0 0 6.71573 0 15V105C0 113.284 6.71573 120 15 120H105C113.284 120 120 113.284 120 105V15C120 6.71573 113.284 0 105 0Z" fill="#2984B8"/>
<path d="M13.1258 60.0253C12.9774 34.2107 34.3907 12.9441 60.3457 13.1084C85.8565 13.273 106.891 34.3497 106.875 60.0583C106.867 85.8489 85.6998 106.907 59.8103 106.893C34.1518 106.876 13.1258 85.7658 13.1258 60.0253ZM41.32 97.6989L41.4023 97.6907V97.6088C41.2542 97.1388 41.1305 96.6615 40.966 96.2005C34.6304 78.845 28.3016 61.4886 21.9571 44.133C21.8494 43.8367 21.8248 43.3431 21.4961 43.3194C21.0683 43.295 21.0597 43.8204 20.9278 44.133C18.4839 50.0658 17.4549 56.272 17.9156 62.6568C18.7882 74.8194 23.9722 84.8437 33.3457 92.6539C35.7727 94.6789 38.3729 96.4651 41.32 97.6989ZM81.0839 85.0011C81.1905 84.7549 81.2977 84.5902 81.3471 84.4089C83.4544 77.3813 85.5939 70.3696 87.6183 63.3184C89.0575 58.313 88.5632 53.4176 86.2928 48.7187C85.4684 47.0238 84.4651 45.4431 83.4944 43.8376C82.3832 42.0029 81.3721 40.1263 80.968 37.9786C80.0957 33.4448 82.9258 29.5105 87.477 28.9097C87.6669 28.8853 87.8805 28.9179 88.0117 28.7026C88.0117 28.3908 87.7488 28.2673 87.5511 28.1116C78.1042 20.1217 67.1917 16.7878 54.93 18.1542C45.8866 19.1662 38.0264 22.9268 31.3195 29.0666C29.0813 31.1238 27.1146 33.4272 25.3788 35.9218C25.2307 36.1268 24.9832 36.3486 25.0898 36.6127C25.2222 36.9563 25.6002 36.8267 25.8806 36.834C26.6703 36.8585 27.4522 36.8462 28.2501 36.8585C31.6407 36.9086 35.0156 36.5389 38.398 36.415C39.7063 36.3742 40.4294 36.9176 40.5207 37.9619C40.6115 38.9422 39.9198 39.6653 38.6691 39.8389C37.6569 39.9783 36.6444 40.0606 35.6247 40.1511C34.1837 40.2824 34.1679 40.2824 34.6365 41.6735C39.4259 55.9264 44.2156 70.1727 49.005 84.4256C49.1206 84.7467 49.1299 85.1422 49.5161 85.3382C49.8041 85.1482 49.8523 84.8446 49.9432 84.5735C52.7905 76.0557 55.6296 67.531 58.4684 59.0124C58.6179 58.5689 58.7069 58.1413 58.5356 57.6722C56.4937 52.1087 54.4604 46.5457 52.4461 40.9827C52.2311 40.3912 51.861 40.2094 51.2608 40.1679C50.0512 40.0859 48.8319 39.953 47.6313 39.7806C46.6678 39.6327 46.1009 38.8668 46.1917 37.9786C46.2894 37.0231 46.9067 36.4647 47.9024 36.4146C48.1327 36.3982 48.3631 36.4146 48.5934 36.431C53.195 36.7012 57.7942 36.991 62.4022 36.8264C65.0278 36.7265 67.6523 36.53 70.2779 36.4216C71.3892 36.3731 72.0397 36.9487 72.1373 37.9037C72.2368 38.8828 71.6441 39.6324 70.5504 39.7962C69.4725 39.9523 68.3941 40.0436 67.3161 40.1427C65.7943 40.2906 65.7857 40.2817 66.2621 41.6981C71.0029 55.7863 75.744 69.8818 80.4912 83.972C80.5988 84.303 80.631 84.6974 81.0839 85.0011ZM60.8318 64.0321C60.345 64.4523 60.3046 64.8648 60.1719 65.226C59.1275 68.2378 58.0985 71.2655 57.062 74.2777C54.2065 82.5819 51.3513 90.8849 48.4782 99.1875C48.2075 99.9701 48.0912 100.489 49.1692 100.76C57.1525 102.784 65.0518 102.595 72.911 100.126C73.7014 99.8715 73.8323 99.5511 73.553 98.7775C69.7189 88.3423 65.9159 77.892 62.1054 67.4556C61.7041 66.3457 61.2838 65.25 60.8318 64.0321ZM81.4383 96.0444C87.0908 94.6785 96.9993 82.5656 99.9865 73.2416C103.616 61.935 102.645 50.9821 97.2951 40.3252C97.0158 40.5559 97.0562 40.7267 97.073 40.8836C97.6496 46.2579 96.7769 51.4427 95.0243 56.5036C90.6215 69.2173 86.1937 81.9233 81.7823 94.6296C81.6268 95.0833 81.3729 95.519 81.4383 96.0444Z" fill="white"/>
</g>
<path d="M369.135 3L368.532 3.36758C367.574 3.95231 366.671 4.60609 365.828 5.32045L367.566 4.08751H382.318L385 24.5666L371.591 38.0895L358.182 47.489V58.3276C358.182 65.8978 362.105 72.9175 368.527 76.8375L382.643 85.4546L352.818 103H347.066L336.345 96.4555C329.923 92.5354 326 85.5157 326 77.9456V41.4989C326 33.9264 329.926 26.9048 336.351 22.9855L368.532 3.35427C368.732 3.23262 368.933 3.11454 369.135 3Z" fill="url(#paint0_radial_39_344)"/>
<path d="M369.135 3L368.532 3.36758C367.574 3.95231 366.671 4.60609 365.828 5.32045L367.566 4.08751H382.318L385 24.5666L371.591 38.0895L358.182 47.489V58.3276C358.182 65.8978 362.105 72.9175 368.527 76.8375L382.643 85.4546L352.818 103H347.066L336.345 96.4555C329.923 92.5354 326 85.5157 326 77.9456V41.4989C326 33.9264 329.926 26.9048 336.351 22.9855L368.532 3.35427C368.732 3.23262 368.933 3.11454 369.135 3Z" fill="url(#paint1_linear_39_344)"/>
<path d="M401.545 46V58.1133C401.545 65.681 397.588 72.6984 391.112 76.6171L358.656 96.2557C352.017 100.273 343.756 100.418 337 96.6907L368.703 115.874C375.591 120.042 384.224 120.042 391.112 115.874L423.567 96.2354C430.044 92.3167 434 85.2992 434 77.7316V68.9814L431.295 64.9258L401.545 46Z" fill="url(#paint2_radial_39_344)"/>
<path d="M401.545 46V58.1133C401.545 65.681 397.588 72.6984 391.112 76.6171L358.656 96.2557C352.017 100.273 343.756 100.418 337 96.6907L368.703 115.874C375.591 120.042 384.224 120.042 391.112 115.874L423.567 96.2354C430.044 92.3167 434 85.2992 434 77.7316V68.9814L431.295 64.9258L401.545 46Z" fill="url(#paint3_linear_39_344)"/>
<path d="M423.524 22.6317L390.953 3.10646C384.257 -0.907175 375.92 -1.03151 369.123 2.73344L368.476 3.12133C361.973 7.01943 358 14.003 358 21.5347V47.0462L368.476 40.7662C375.385 36.6244 384.043 36.6244 390.953 40.7662L423.524 60.2914C429.824 64.0678 433.749 70.7395 433.988 78C433.996 77.7654 434 77.5306 434 77.295V41.0451C434 33.5135 430.027 26.5297 423.524 22.6317Z" fill="url(#paint4_radial_39_344)"/>
<path d="M423.524 22.6317L390.953 3.10646C384.257 -0.907175 375.92 -1.03151 369.123 2.73344L368.476 3.12133C361.973 7.01943 358 14.003 358 21.5347V47.0462L368.476 40.7662C375.385 36.6244 384.043 36.6244 390.953 40.7662L423.524 60.2914C429.824 64.0678 433.749 70.7395 433.988 78C433.996 77.7654 434 77.5306 434 77.295V41.0451C434 33.5135 430.027 26.5297 423.524 22.6317Z" fill="url(#paint5_linear_39_344)"/>
<line y1="167.5" x2="440" y2="167.5" stroke="black"/>
<line x1="0.5" y1="148" x2="0.499999" y2="168" stroke="black"/>
<line x1="439.5" y1="148" x2="439.5" y2="168" stroke="black"/>
<path d="M199.191 205.808C198.06 205.808 197.047 206.011 196.151 206.416C195.255 206.8 194.487 207.376 193.847 208.144C193.228 208.912 192.748 209.84 192.407 210.928C192.087 212.016 191.927 213.243 191.927 214.608C191.927 216.4 192.193 217.957 192.727 219.28C193.26 220.581 194.06 221.584 195.127 222.288C196.193 222.992 197.537 223.344 199.159 223.344C200.14 223.344 201.079 223.259 201.975 223.088C202.892 222.896 203.82 222.651 204.759 222.352V225.328C203.863 225.669 202.945 225.915 202.007 226.064C201.068 226.235 199.98 226.32 198.743 226.32C196.417 226.32 194.476 225.84 192.919 224.88C191.383 223.92 190.231 222.555 189.463 220.784C188.695 219.013 188.311 216.944 188.311 214.576C188.311 212.848 188.545 211.269 189.015 209.84C189.505 208.389 190.209 207.141 191.127 206.096C192.044 205.051 193.175 204.251 194.519 203.696C195.884 203.12 197.452 202.832 199.223 202.832C200.375 202.832 201.505 202.96 202.615 203.216C203.724 203.451 204.727 203.792 205.623 204.24L204.343 207.12C203.596 206.779 202.785 206.48 201.911 206.224C201.057 205.947 200.151 205.808 199.191 205.808ZM219.633 226L212.721 206.576H212.593C212.614 207.003 212.646 207.579 212.689 208.304C212.731 209.029 212.763 209.808 212.785 210.64C212.806 211.472 212.817 212.293 212.817 213.104V226H209.681V203.152H214.609L221.169 221.488H221.297L228.049 203.152H232.977V226H229.617V212.912C229.617 212.165 229.627 211.397 229.649 210.608C229.691 209.797 229.723 209.04 229.745 208.336C229.787 207.632 229.819 207.056 229.841 206.608H229.713L222.609 226H219.633ZM252.176 219.824C252.176 221.189 251.845 222.352 251.184 223.312C250.522 224.272 249.573 225.019 248.336 225.552C247.098 226.064 245.626 226.32 243.92 226.32C243.088 226.32 242.288 226.267 241.52 226.16C240.752 226.075 240.037 225.947 239.376 225.776C238.714 225.605 238.128 225.392 237.616 225.136V221.872C238.469 222.256 239.472 222.608 240.624 222.928C241.776 223.227 242.949 223.376 244.144 223.376C245.168 223.376 246.021 223.237 246.704 222.96C247.386 222.683 247.898 222.299 248.24 221.808C248.581 221.317 248.752 220.741 248.752 220.08C248.752 219.376 248.57 218.789 248.208 218.32C247.866 217.829 247.322 217.381 246.576 216.976C245.85 216.549 244.869 216.101 243.632 215.632C242.778 215.312 242 214.96 241.296 214.576C240.613 214.171 240.005 213.701 239.472 213.168C238.96 212.635 238.565 212.016 238.288 211.312C238.01 210.608 237.872 209.787 237.872 208.848C237.872 207.589 238.181 206.512 238.8 205.616C239.44 204.72 240.314 204.037 241.424 203.568C242.533 203.077 243.824 202.832 245.296 202.832C246.533 202.832 247.674 202.96 248.72 203.216C249.786 203.451 250.8 203.781 251.76 204.208L250.672 207.056C249.797 206.693 248.912 206.395 248.016 206.16C247.12 205.925 246.181 205.808 245.2 205.808C244.346 205.808 243.632 205.936 243.056 206.192C242.48 206.448 242.042 206.8 241.744 207.248C241.466 207.696 241.328 208.219 241.328 208.816C241.328 209.52 241.488 210.107 241.808 210.576C242.128 211.045 242.64 211.483 243.344 211.888C244.048 212.272 244.976 212.699 246.128 213.168C247.408 213.659 248.496 214.192 249.392 214.768C250.309 215.344 251.002 216.037 251.472 216.848C251.941 217.637 252.176 218.629 252.176 219.824Z" fill="black"/>
<defs>
<radialGradient id="paint0_radial_39_344" cx="0" cy="0" r="1" gradientUnits="userSpaceOnUse" gradientTransform="translate(361.986 23.5884) rotate(110.369) scale(90.1472 156.234)">
<stop offset="0.06441" stop-color="#AE7FE2"/>
<stop offset="1" stop-color="#0078D4"/>
</radialGradient>
<linearGradient id="paint1_linear_39_344" x1="362.236" y1="97.2346" x2="349.307" y2="75.0604" gradientUnits="userSpaceOnUse">
<stop stop-color="#114A8B"/>
<stop offset="1" stop-color="#0078D4" stop-opacity="0"/>
</linearGradient>
<radialGradient id="paint2_radial_39_344" cx="0" cy="0" r="1" gradientUnits="userSpaceOnUse" gradientTransform="translate(343.206 92.912) rotate(-8.3643) scale(83.979 55.4553)">
<stop offset="0.133928" stop-color="#D59DFF"/>
<stop offset="1" stop-color="#5E438F"/>
</radialGradient>
<linearGradient id="paint3_linear_39_344" x1="424.146" y1="63.2409" x2="410.355" y2="83.0224" gradientUnits="userSpaceOnUse">
<stop stop-color="#493474"/>
<stop offset="1" stop-color="#8C66BA" stop-opacity="0"/>
</linearGradient>
<radialGradient id="paint4_radial_39_344" cx="0" cy="0" r="1" gradientUnits="userSpaceOnUse" gradientTransform="translate(426.007 65.9099) rotate(-165.894) scale(67.6112 112.919)">
<stop offset="0.0584996" stop-color="#50E6FF"/>
<stop offset="1" stop-color="#436DCD"/>
</radialGradient>
<linearGradient id="paint5_linear_39_344" x1="360.649" y1="2.83684" x2="381.036" y2="2.83684" gradientUnits="userSpaceOnUse">
<stop stop-color="#2D3F80"/>
<stop offset="1" stop-color="#436DCD" stop-opacity="0"/>
</linearGradient>
<clipPath id="clip0_39_344">
<rect width="120" height="120" fill="white" transform="translate(160)"/>
</clipPath>
<clipPath id="clip1_39_344">
<rect width="120" height="120" fill="white"/>
</clipPath>
</defs>
</svg>
