<svg width="601" height="236" viewBox="0 0 601 236" fill="none" xmlns="http://www.w3.org/2000/svg">
<path fill-rule="evenodd" clip-rule="evenodd" d="M60 60C60 48.9545 68.9545 40 80 40C91.0455 40 100 48.9545 100 60C100 71.0455 91.0455 80 80 80C68.9545 80 60 71.0455 60 60Z" fill="#1ABCFE"/>
<path fill-rule="evenodd" clip-rule="evenodd" d="M20 100C20 88.9545 28.9543 80 40 80H60V100C60 111.045 51.0455 120 40 120C28.9543 120 20 111.045 20 100Z" fill="#0ACF83"/>
<path fill-rule="evenodd" clip-rule="evenodd" d="M60 0V40H80C91.0455 40 100 31.0455 100 20C100 8.9543 91.0455 0 80 0H60Z" fill="#FF7262"/>
<path fill-rule="evenodd" clip-rule="evenodd" d="M20 20C20 31.0455 28.9543 40 40 40H60V0H40C28.9543 0 20 8.9543 20 20Z" fill="#F24E1E"/>
<path fill-rule="evenodd" clip-rule="evenodd" d="M20 60C20 71.0455 28.9543 80 40 80H60V40H40C28.9543 40 20 48.9545 20 60Z" fill="#A259FF"/>
<g clip-path="url(#clip0_39_327)">
<path d="M280 0H160V120H280V0Z" fill="#FF26BE"/>
<path d="M274.719 5.28027H165.279V114.72H274.719V5.28027Z" fill="#2E001F"/>
<path d="M222.295 32.1248H212.921L202.859 53.1702L192.662 32.1248H183.005L196.671 59.4515L182.518 87.4329H192.06L202.302 65.9889L212.664 87.4329H222.992L208.404 59.1227L222.295 32.1248ZM248.209 32.1248V46.1882C248.209 46.1882 246.587 46.1882 245.508 46.1882C236.29 46.1882 225.146 52.1325 225.146 67.3158C225.146 79.0534 231.093 87.8759 243.761 87.8759C253.088 87.8759 257.482 84.6494 257.482 84.6494V32.1248H248.209ZM248.2 79.7968C248.2 79.7968 247.132 80.2664 244.613 80.2664C242.094 80.2664 234.365 79.1566 234.365 66.902C234.365 54.6485 243.247 53.6658 245.381 53.6658C247.516 53.6658 248.199 54.264 248.199 54.264V79.7968H248.2Z" fill="#FFD9F2"/>
</g>
<g clip-path="url(#clip1_39_327)">
<path d="M440 0H320V120H440V0Z" fill="#4FC7EC"/>
<path d="M434.719 5.28052H325.279V114.72H434.719V5.28052Z" fill="#242238"/>
<path d="M349.186 28.9883C349.186 28.5746 349.257 28.4103 349.611 28.4103C352.31 28.3271 357.636 28.2451 363.033 28.2451C376.95 28.2451 382.258 36.3428 382.329 45.9204C382.329 59.0462 372.547 64.0232 362.109 64.0232C360.121 64.0232 358.204 64.0232 357.706 64.0232V82.7772C357.706 83.2726 357.565 83.4383 357.209 83.4383H349.682C349.328 83.4383 349.186 83.2729 349.186 82.8604L349.186 28.9883ZM357.706 56.0155C358.275 56.0978 359.34 56.1798 362.323 56.1798C367.932 56.1798 373.328 54.5814 373.328 46.3253C373.328 39.7206 369.707 36.3282 363.033 36.3282C360.264 36.3282 358.275 36.4105 357.706 36.4937V56.0155Z" fill="#4FC7EC"/>
<path d="M400.053 49.8446C396.633 49.8446 395.727 51.9832 395.727 53.5517C395.727 55.5337 396.633 56.6064 401.867 59.0836C409.053 62.5509 412.123 65.6061 412.123 71.5494C412.123 79.8057 406.751 84.503 399.075 84.503C395.377 84.503 390.712 84.1505 387.781 82.0042C387.502 81.8387 387.362 81.5915 387.362 81.1778V73.5827C387.362 73.17 387.642 73.0047 387.851 73.17C391.479 75.8944 395.525 76.6686 399.153 76.6686C402.363 76.6686 403.479 74.5291 403.479 72.7133C403.479 70.5668 402.704 69.328 397.68 66.934C390.493 63.4664 387.502 60.4867 387.502 54.4601C387.502 47.7724 392.516 42.2485 400.75 42.2485C405.005 42.2485 408.005 42.3625 409.96 43.6827C410.308 44.0131 410.378 44.2606 410.378 44.7563V51.526C410.378 52.0208 410.099 52.2694 409.75 52.0208C407.238 50.3704 403.681 49.8446 400.053 49.8446Z" fill="#4FC7EC"/>
</g>
<g clip-path="url(#clip2_39_327)">
<path d="M600 0H480V120H600V0Z" fill="#F0A024"/>
<path d="M594.719 5.28052H485.279V114.721H594.719V5.28052Z" fill="#373122"/>
<path d="M521.495 68.3076L517.163 82.6724C517.092 83.168 516.879 83.3335 516.453 83.3335H509.21C508.713 83.3335 508.572 83.0851 508.713 82.5083C512.548 69.876 519.009 48.8238 523.554 34.5408C523.767 33.7157 523.98 32.8898 524.122 30.0001C524.122 29.6703 524.335 29.5049 524.548 29.5049H534.348C534.702 29.5049 534.774 29.5876 534.916 29.9176C540.17 46.8422 545.922 65.5009 551.318 82.5906C551.46 83.0851 551.318 83.3335 550.892 83.3335H542.939C542.584 83.3335 542.442 83.1683 542.3 82.8381L537.755 68.3079H521.495V68.3076ZM535.838 60.2163C534.418 54.6849 530.938 43.5396 529.519 37.7605H529.448C528.382 43.2092 525.472 52.5384 523.341 60.2163H535.838Z" fill="#F0A024"/>
<path d="M558.516 32.6263C558.516 29.5719 560.539 27.5083 563.259 27.5083C566.12 27.5083 567.865 29.5719 567.865 32.6263C567.865 35.7639 565.981 37.7452 563.19 37.7452C560.399 37.7452 558.516 35.7639 558.516 32.6263ZM559.004 43.8543C559.004 43.3591 559.143 43.1944 559.492 43.1944H566.887C567.306 43.1944 567.446 43.2768 567.446 43.8543V82.6571C567.446 83.0707 567.306 83.317 566.887 83.317H559.632C559.213 83.317 559.004 83.153 559.004 82.5751V43.8543Z" fill="#F0A024"/>
</g>
<line y1="167.5" x2="600" y2="167.5" stroke="black"/>
<line x1="0.5" y1="148" x2="0.499999" y2="168" stroke="black"/>
<line x1="600.5" y1="148" x2="600.5" y2="168" stroke="black"/>
<path d="M288.536 214.352C288.536 216.912 288.056 219.056 287.096 220.784C286.136 222.512 284.749 223.813 282.936 224.688C281.144 225.563 278.979 226 276.44 226H270.04V203.152H277.112C279.437 203.152 281.453 203.579 283.16 204.432C284.867 205.285 286.189 206.544 287.128 208.208C288.067 209.851 288.536 211.899 288.536 214.352ZM284.92 214.448C284.92 212.528 284.611 210.949 283.992 209.712C283.373 208.475 282.456 207.557 281.24 206.96C280.045 206.363 278.595 206.064 276.888 206.064H273.496V223.088H276.28C279.16 223.088 281.315 222.363 282.744 220.912C284.195 219.461 284.92 217.307 284.92 214.448ZM299.909 208.432C301.423 208.432 302.725 208.752 303.813 209.392C304.901 210.011 305.733 210.907 306.309 212.08C306.906 213.253 307.205 214.64 307.205 216.24V218.096H295.621C295.663 219.867 296.122 221.221 296.997 222.16C297.893 223.099 299.141 223.568 300.741 223.568C301.85 223.568 302.831 223.472 303.685 223.28C304.559 223.067 305.455 222.757 306.373 222.352V225.168C305.519 225.552 304.645 225.84 303.749 226.032C302.874 226.224 301.829 226.32 300.613 226.32C298.949 226.32 297.477 225.989 296.197 225.328C294.917 224.667 293.914 223.685 293.189 222.384C292.485 221.061 292.133 219.44 292.133 217.52C292.133 215.579 292.453 213.936 293.093 212.592C293.754 211.248 294.661 210.224 295.813 209.52C296.986 208.795 298.351 208.432 299.909 208.432ZM299.909 211.056C298.693 211.056 297.711 211.451 296.965 212.24C296.239 213.029 295.813 214.149 295.685 215.6H303.813C303.813 214.704 303.674 213.915 303.397 213.232C303.119 212.549 302.693 212.016 302.117 211.632C301.541 211.248 300.805 211.056 299.909 211.056ZM322.893 221.136C322.893 222.267 322.616 223.216 322.061 223.984C321.507 224.752 320.707 225.339 319.661 225.744C318.616 226.128 317.357 226.32 315.885 226.32C314.669 226.32 313.624 226.224 312.749 226.032C311.896 225.861 311.107 225.605 310.381 225.264V222.288C311.149 222.651 312.035 222.981 313.037 223.28C314.04 223.557 315.021 223.696 315.981 223.696C317.261 223.696 318.179 223.493 318.733 223.088C319.309 222.683 319.597 222.139 319.597 221.456C319.597 221.072 319.491 220.731 319.277 220.432C319.064 220.112 318.659 219.792 318.061 219.472C317.485 219.131 316.632 218.747 315.501 218.32C314.413 217.872 313.485 217.435 312.717 217.008C311.949 216.56 311.363 216.037 310.957 215.44C310.552 214.821 310.349 214.032 310.349 213.072C310.349 211.579 310.947 210.437 312.141 209.648C313.357 208.837 314.957 208.432 316.941 208.432C317.987 208.432 318.968 208.539 319.885 208.752C320.824 208.944 321.731 209.243 322.605 209.648L321.485 212.24C320.995 212.005 320.483 211.813 319.949 211.664C319.437 211.493 318.915 211.355 318.381 211.248C317.869 211.141 317.336 211.088 316.781 211.088C315.757 211.088 314.979 211.248 314.445 211.568C313.912 211.888 313.645 212.336 313.645 212.912C313.645 213.317 313.763 213.669 313.997 213.968C314.253 214.267 314.691 214.565 315.309 214.864C315.928 215.163 316.771 215.525 317.837 215.952C318.904 216.357 319.811 216.773 320.557 217.2C321.325 217.627 321.901 218.149 322.285 218.768C322.691 219.387 322.893 220.176 322.893 221.136ZM330.329 208.752V226H326.937V208.752H330.329ZM328.665 202.192C329.177 202.192 329.625 202.341 330.009 202.64C330.393 202.939 330.585 203.44 330.585 204.144C330.585 204.827 330.393 205.328 330.009 205.648C329.625 205.947 329.177 206.096 328.665 206.096C328.111 206.096 327.641 205.947 327.257 205.648C326.895 205.328 326.713 204.827 326.713 204.144C326.713 203.44 326.895 202.939 327.257 202.64C327.641 202.341 328.111 202.192 328.665 202.192ZM341.608 208.432C342.717 208.432 343.72 208.645 344.616 209.072C345.512 209.499 346.269 210.149 346.888 211.024H347.048L347.432 208.752H350.184V226.224C350.184 227.845 349.896 229.211 349.32 230.32C348.744 231.429 347.859 232.261 346.664 232.816C345.491 233.392 344.008 233.68 342.216 233.68C340.979 233.68 339.837 233.595 338.792 233.424C337.747 233.253 336.787 232.987 335.912 232.624V229.648C336.531 229.947 337.181 230.192 337.864 230.384C338.547 230.597 339.272 230.747 340.04 230.832C340.808 230.939 341.597 230.992 342.408 230.992C343.816 230.992 344.904 230.587 345.672 229.776C346.44 228.987 346.824 227.867 346.824 226.416V225.84C346.824 225.563 346.835 225.2 346.856 224.752C346.877 224.283 346.899 223.941 346.92 223.728H346.792C346.195 224.624 345.459 225.285 344.584 225.712C343.731 226.117 342.739 226.32 341.608 226.32C339.432 226.32 337.725 225.541 336.488 223.984C335.272 222.405 334.664 220.219 334.664 217.424C334.664 215.547 334.941 213.947 335.496 212.624C336.051 211.28 336.84 210.245 337.864 209.52C338.909 208.795 340.157 208.432 341.608 208.432ZM342.312 211.248C341.416 211.248 340.659 211.493 340.04 211.984C339.421 212.453 338.952 213.147 338.632 214.064C338.312 214.981 338.152 216.112 338.152 217.456C338.152 219.461 338.504 220.987 339.208 222.032C339.933 223.077 340.989 223.6 342.376 223.6C343.187 223.6 343.869 223.493 344.424 223.28C345 223.067 345.469 222.736 345.832 222.288C346.216 221.84 346.493 221.275 346.664 220.592C346.856 219.888 346.952 219.045 346.952 218.064V217.424C346.952 215.952 346.781 214.768 346.44 213.872C346.12 212.955 345.619 212.293 344.936 211.888C344.253 211.461 343.379 211.248 342.312 211.248ZM364.236 208.432C366.241 208.432 367.777 208.933 368.844 209.936C369.91 210.939 370.444 212.549 370.444 214.768V226H367.084V215.248C367.084 213.904 366.796 212.901 366.22 212.24C365.665 211.557 364.769 211.216 363.532 211.216C361.782 211.216 360.566 211.739 359.884 212.784C359.222 213.829 358.892 215.333 358.892 217.296V226H355.5V208.752H358.188L358.668 211.056H358.86C359.244 210.459 359.713 209.968 360.268 209.584C360.822 209.2 361.441 208.912 362.124 208.72C362.806 208.528 363.51 208.432 364.236 208.432Z" fill="black"/>
<defs>
<clipPath id="clip0_39_327">
<rect width="120" height="120" fill="white" transform="translate(160)"/>
</clipPath>
<clipPath id="clip1_39_327">
<rect width="120" height="120" fill="white" transform="translate(320)"/>
</clipPath>
<clipPath id="clip2_39_327">
<rect width="120" height="120" fill="white" transform="translate(480)"/>
</clipPath>
</defs>
</svg>
