<svg width="1081" height="236" viewBox="0 0 1081 236" fill="none" xmlns="http://www.w3.org/2000/svg">
<path d="M539.269 71C545.068 71 549.769 66.0751 549.769 60C549.769 53.9249 545.068 49 539.269 49C533.47 49 528.769 53.9249 528.769 60C528.769 66.0751 533.47 71 539.269 71Z" fill="#00D8FF"/>
<path d="M539.585 84.2677C524.636 84.2677 511.574 82.5077 501.799 79.1573C495.458 76.9944 490.072 74.1106 486.234 70.8239C482.163 67.3463 480 63.5506 480 59.8822C480 52.8422 487.719 45.9506 500.675 41.4552C511.277 37.7656 525.103 35.7087 539.564 35.7087C553.771 35.7087 567.406 37.702 577.945 41.3492C584.115 43.4697 589.311 46.2263 593 49.2798C597.008 52.6302 599.128 56.2986 599.128 59.8822C599.128 67.1978 590.498 74.5983 576.588 79.1997C566.749 82.4653 553.602 84.2677 539.585 84.2677ZM539.585 40.7979C525.866 40.7979 512.295 42.7911 502.371 46.2475C490.454 50.4037 485.11 56.0865 485.11 59.8822C485.11 63.8263 490.857 70.0393 503.452 74.3438C512.698 77.5034 525.209 79.1785 539.585 79.1785C553.072 79.1785 565.646 77.4822 574.997 74.3651C588.081 70.0181 594.061 63.8051 594.061 59.8822C594.061 57.8677 592.534 55.4928 589.756 53.1815C586.554 50.5097 581.889 48.0711 576.312 46.1415C566.282 42.7063 553.241 40.7979 539.585 40.7979Z" fill="#00D8FF"/>
<path d="M515.433 112.936C513.27 112.936 511.362 112.47 509.75 111.537C503.665 108.017 501.544 97.8811 504.11 84.416C506.209 73.3683 511.341 60.391 518.572 47.859C525.675 35.5602 534.199 24.7458 542.618 17.4301C547.537 13.1467 552.52 10.0084 557.016 8.35447C561.914 6.55206 566.155 6.55206 569.251 8.33326C575.591 11.9805 577.69 23.1766 574.722 37.511C572.623 47.6893 567.618 59.9669 560.621 72.1172C553.157 85.0522 545.099 95.4849 537.317 102.292C532.27 106.702 527.075 109.925 522.325 111.601C519.844 112.491 517.511 112.936 515.433 112.936ZM520.756 49.1313L522.961 50.4035C516.112 62.2782 511.044 75.0223 509.093 85.3702C506.739 97.775 509.008 105.239 512.274 107.126C513.08 107.593 514.14 107.847 515.433 107.847C519.653 107.847 526.29 105.175 533.966 98.4748C541.324 92.0497 549.022 82.0411 556.21 69.5939C562.953 57.91 567.745 46.1626 569.739 36.5144C572.517 23.007 570.12 14.7371 566.706 12.7651C564.968 11.7684 562.147 11.8957 558.755 13.1467C554.832 14.5887 550.4 17.4089 545.947 21.2894C537.953 28.2446 529.789 38.5925 522.961 50.4248L520.756 49.1313Z" fill="#00D8FF"/>
<path d="M563.737 113C557.969 113 550.653 109.522 543.02 102.949C534.495 95.6121 525.823 84.6917 518.571 72.1596C511.446 59.8609 506.357 47.0744 504.215 36.1115C502.964 29.7077 502.731 23.8339 503.536 19.1053C504.427 13.9525 506.526 10.2841 509.643 8.48168C515.962 4.81325 526.713 8.5877 537.655 18.3207C545.416 25.2123 553.558 35.6874 560.577 47.8165C568.062 60.7515 573.088 72.9442 575.081 83.0801C576.375 89.6536 576.587 95.7606 575.675 100.722C574.7 106.002 572.494 109.756 569.314 111.601C567.723 112.534 565.836 113 563.737 113ZM522.981 69.6151C529.851 81.4897 538.376 92.2406 546.349 99.0897C555.912 107.317 563.503 109.098 566.79 107.19C570.204 105.218 572.706 97.1389 570.119 84.0767C568.211 74.4922 563.397 62.8295 556.188 50.3823C549.423 38.6985 541.641 28.6686 534.283 22.1376C523.978 12.9771 515.623 10.9202 512.209 12.8923C510.47 13.8889 509.177 16.4123 508.562 19.9747C507.862 24.0884 508.074 29.3472 509.219 35.1361C511.255 45.5476 516.132 57.7828 522.981 69.6151Z" fill="#00D8FF"/>
<path d="M1070.68 89C1071.49 87.599 1072 86.0204 1072 84.6029V35.3968C1072 33.9793 1071.49 32.401 1070.68 31L1020 60L1070.68 89Z" fill="#00599C"/>
<path d="M1024.99 116.937L1067.83 92.334C1069.07 91.6252 1070.19 90.4014 1071 89L1020.5 60L970 89.0003C970.813 90.4014 971.935 91.6256 973.169 92.334L1016.01 116.937C1018.48 118.354 1022.52 118.354 1024.99 116.937Z" fill="#004482"/>
<path d="M1071 30.3332C1070.18 28.9157 1069.05 27.6778 1067.81 26.9609L1024.68 2.07537C1022.2 0.641542 1018.13 0.641542 1015.65 2.07537L972.517 26.9609C970.033 28.3944 968 31.9136 968 34.7809V84.5523C968 85.9862 968.508 87.5829 969.327 89L1020.16 59.6668L1071 30.3332Z" fill="#659AD2"/>
<path d="M1020.07 94.2312C1001.02 94.2312 985.522 78.7328 985.522 59.6825C985.522 40.6323 1001.02 25.1338 1020.07 25.1338C1032.36 25.1338 1043.83 31.7489 1049.99 42.3973L1035.04 51.0494C1031.95 45.7194 1026.22 42.4082 1020.07 42.4082C1010.55 42.4082 1002.8 50.1572 1002.8 59.6825C1002.8 69.2075 1010.55 76.9569 1020.07 76.9569C1026.22 76.9569 1031.95 73.6456 1035.04 68.3146L1049.99 76.9664C1043.83 87.6158 1032.36 94.2312 1020.07 94.2312Z" fill="white"/>
<path d="M1054.62 57.7629H1050.78V53.9243H1046.94V57.7629H1043.1V61.6016H1046.94V65.4406H1050.78V61.6016H1054.62V57.7629Z" fill="white"/>
<path d="M1069.02 57.7629H1065.18V53.9243H1061.34V57.7629H1057.5V61.6016H1061.34V65.4406H1065.18V61.6016H1069.02V57.7629Z" fill="white"/>
<path d="M171 4L179.912 104.932L219.932 116.147L259.936 104.939L268.864 4H171Z" fill="#2299F8"/>
<path d="M249.808 37.0063L248.683 49.6855L245.285 87.6976L219.932 94.7275L219.91 94.7338L194.57 87.6976L192.802 67.8186H205.217L206.139 78.1293L219.917 81.8577L219.924 81.8514L233.723 78.122L235.603 60.9423L192.208 61.0623L190.977 49.3143L236.644 48.7738L237.568 36.2L189.754 36.3341L188.95 24.6357H250.912L249.808 37.0063Z" fill="#FCFCFC"/>
<path d="M101.438 107.231L60 118.563L18.5618 107.231L9 2H111L101.438 107.231Z" fill="#E44D26"/>
<path d="M59.9961 9.28516V110.367L93.6245 100.379L102.571 9.28516H59.9961Z" fill="#FF6C39"/>
<path d="M90.4592 23.8555H29.4238L30.8554 38.4259L33.1101 63.924H72.7562L71.463 78.4361L59.9961 82.1006L48.5475 78.4361L47.7862 71.2092H33.7804L35.4523 89.3749L59.9961 96.671L84.5035 89.3712L88.1097 49.3536H46.3437L45.433 38.4259H89.1369L90.4592 23.8555Z" fill="white"/>
<g clip-path="url(#clip0_39_343)">
<path d="M723.147 82.5623C727.576 82.1039 730.935 78.2864 730.782 73.7048C730.63 69.1238 726.812 65.4586 722.231 65.4586H721.926C717.191 65.6114 713.527 69.5817 713.68 74.3156C713.832 76.6064 714.748 78.5916 716.123 79.9659C710.931 90.1978 702.99 97.6805 691.079 103.942C682.986 108.217 674.587 109.745 666.189 108.676C659.317 107.76 653.972 104.706 650.612 99.6656C645.726 92.183 645.268 84.0891 649.391 75.9956C652.292 70.1925 656.873 65.9166 659.775 63.7786C659.164 61.7934 658.247 58.4339 657.79 55.9908C635.647 72.0253 637.938 93.7102 644.657 103.942C649.696 111.577 659.927 116.311 671.228 116.311C674.282 116.311 677.335 116.006 680.39 115.243C699.936 111.425 714.749 99.8184 723.147 82.5623ZM750.024 63.6263C738.418 50.0348 721.315 42.5522 701.769 42.5522H699.325C697.951 39.8034 695.05 37.9706 691.843 37.9706H691.537C686.804 38.1234 683.139 42.0938 683.291 46.8281C683.444 51.4092 687.262 55.0744 691.843 55.0744H692.148C695.507 54.9216 698.409 52.7836 699.631 49.882H702.379C713.985 49.882 724.98 53.2416 734.906 59.8083C742.541 64.8478 748.038 71.4145 751.092 79.3552C753.688 85.7691 753.535 92.0302 750.787 97.3753C746.511 105.469 739.334 109.897 729.866 109.897C723.758 109.897 717.955 108.065 714.901 106.69C713.222 108.217 710.167 110.661 708.029 112.188C714.596 115.242 721.315 116.922 727.728 116.922C742.388 116.922 753.23 108.828 757.353 100.735C761.782 91.8773 761.476 76.6064 750.024 63.6263ZM672.449 85.1578C672.602 89.7394 676.42 93.4041 681.001 93.4041H681.306C686.04 93.2517 689.705 89.2809 689.552 84.547C689.4 79.9655 685.582 76.3008 681.001 76.3008H680.695C680.39 76.3008 679.931 76.3008 679.627 76.4531C673.366 66.0689 670.77 54.7687 671.686 42.5517C672.296 33.3891 675.351 25.448 680.695 18.8813C685.124 13.2309 693.675 10.4822 699.478 10.3298C715.665 10.0242 722.536 30.1819 722.995 38.2758C724.98 38.7337 728.339 39.803 730.63 40.5666C728.797 15.8278 713.527 3 698.867 3C685.124 3 672.449 12.9263 667.41 27.5864C660.385 47.1333 664.967 65.9166 673.518 80.7295C672.755 81.7983 672.296 83.4778 672.449 85.1578Z" fill="#764ABC"/>
</g>
<path d="M322 118V2H438V118H322Z" fill="#FFD600"/>
<path d="M398.374 89.5777C400.634 93.2307 403.089 96.731 408.289 96.731C412.657 96.731 414.949 94.5697 414.949 91.5798C414.949 88.0015 412.579 86.7308 407.773 84.6475L405.139 83.5295C397.535 80.3185 392.478 76.295 392.478 67.7963C392.478 59.9638 398.502 54.0032 407.914 54.0032C414.616 54.0032 419.432 56.314 422.905 62.3655L414.698 67.5882C412.892 64.3772 410.94 63.113 407.914 63.113C404.825 63.113 402.87 65.0532 402.87 67.5882C402.87 70.7212 404.829 71.9888 409.35 73.929L411.985 75.047C420.946 78.8462 426 82.7267 426 91.4497C426 100.849 418.544 106 408.534 106C398.743 106 393.184 101.109 390.089 95.054L398.374 89.5777ZM360.55 89.8442C362.202 92.7887 364.713 95.054 368.323 95.054C371.777 95.054 373.765 93.6955 373.765 88.4143V54H384.647V90.0783C384.647 101.021 378.271 106 368.96 106C360.547 106 354.475 100.326 352 95.054L360.55 89.8442Z" fill="#000001"/>
<g clip-path="url(#clip1_39_343)">
<mask id="mask0_39_343" style="mask-type:luminance" maskUnits="userSpaceOnUse" x="802" y="29" width="117" height="62">
<path d="M802.41 59.8862C802.41 76.6877 828.303 90.3083 860.243 90.3083C892.182 90.3083 918.076 76.6877 918.076 59.8862C918.076 43.0849 892.182 29.464 860.243 29.464C828.303 29.464 802.41 43.0849 802.41 59.8862Z" fill="white"/>
</mask>
<g mask="url(#mask0_39_343)">
<path d="M802.41 59.8862C802.41 76.6877 828.303 90.3083 860.243 90.3083C892.182 90.3083 918.076 76.6877 918.076 59.8862C918.076 43.0849 892.182 29.464 860.243 29.464C828.303 29.464 802.41 43.0849 802.41 59.8862Z" fill="url(#paint0_radial_39_343)"/>
</g>
<mask id="mask1_39_343" style="mask-type:luminance" maskUnits="userSpaceOnUse" x="800" y="25" width="121" height="69">
<path d="M800 25.9999H920.485V93.7725H800V25.9999Z" fill="white"/>
</mask>
<g mask="url(#mask1_39_343)">
<path d="M860.242 88.0496C890.934 88.0496 915.816 75.4403 915.816 59.8861C915.816 44.3321 890.934 31.7226 860.242 31.7226C829.55 31.7226 804.669 44.3321 804.669 59.8861C804.669 75.4403 829.55 88.0496 860.242 88.0496Z" fill="#777BB3"/>
</g>
<mask id="mask2_39_343" style="mask-type:luminance" maskUnits="userSpaceOnUse" x="800" y="25" width="121" height="69">
<path d="M800 25.9999H920.485V93.7725H800V25.9999Z" fill="white"/>
</mask>
<g mask="url(#mask2_39_343)">
<path d="M833.83 63.3782C836.354 63.3782 838.238 62.9128 839.43 61.9954C840.609 61.0873 841.424 59.5141 841.851 57.3197C842.249 55.2685 842.097 53.8363 841.4 53.0634C840.688 52.274 839.147 51.8736 836.821 51.8736H832.788L830.552 63.3782H833.83ZM820.639 77.5498C820.452 77.5498 820.274 77.4661 820.155 77.3214C820.036 77.1768 819.987 76.9865 820.023 76.8026L825.949 46.3152C826.006 46.0205 826.264 45.8076 826.565 45.8076H839.336C843.349 45.8076 846.337 46.8974 848.215 49.047C850.102 51.208 850.685 54.2287 849.947 58.025C849.647 59.5717 849.13 61.0081 848.412 62.2941C847.692 63.5815 846.742 64.7728 845.585 65.8354C844.202 67.1306 842.635 68.0698 840.934 68.6224C839.26 69.1678 837.11 69.4443 834.544 69.4443H829.373L827.896 77.0419C827.839 77.3369 827.581 77.5498 827.281 77.5498H820.639Z" fill="black"/>
<path d="M833.306 52.5008H836.821C839.629 52.5008 840.604 53.1168 840.935 53.4839C841.485 54.0935 841.589 55.3786 841.235 57.2003C840.838 59.2398 840.103 60.6858 839.048 61.4978C837.968 62.3291 836.213 62.7504 833.831 62.7504H831.314L833.306 52.5008ZM839.336 45.1797H826.565C825.964 45.1797 825.448 45.6056 825.333 46.1952L819.408 76.6827C819.336 77.0506 819.433 77.4311 819.671 77.7204C819.91 78.0097 820.265 78.177 820.64 78.177H827.281C827.882 78.177 828.398 77.7511 828.513 77.1615L829.891 70.0715H834.545C837.177 70.0715 839.392 69.7845 841.13 69.2187C842.916 68.6382 844.56 67.6541 846.015 66.2936C847.218 65.1866 848.209 63.9441 848.96 62.6002C849.711 61.2558 850.251 59.7567 850.564 58.1443C851.341 54.1483 850.71 50.9483 848.688 48.634C846.685 46.3419 843.539 45.1797 839.336 45.1797ZM829.791 64.0054H833.831C836.509 64.0054 838.503 63.5011 839.813 62.4922C841.124 61.4832 842.008 59.7991 842.467 57.4392C842.907 55.1734 842.707 53.5745 841.867 52.6431C841.026 51.7116 839.344 51.2458 836.821 51.2458H832.271L829.791 64.0054ZM839.336 46.4347C843.178 46.4347 845.981 47.443 847.743 49.4596C849.504 51.4763 850.035 54.2911 849.332 57.905C849.042 59.3937 848.553 60.7548 847.864 61.9879C847.175 63.2218 846.274 64.3501 845.161 65.3732C843.835 66.6142 842.362 67.4986 840.741 68.0253C839.12 68.5535 837.055 68.8164 834.545 68.8164H828.856L827.281 76.922H820.64L826.565 46.4347H839.336Z" fill="white"/>
<path d="M865.175 69.4441C864.988 69.4441 864.81 69.3604 864.691 69.2157C864.572 69.0711 864.523 68.881 864.559 68.6969L867.18 55.2075C867.43 53.9246 867.368 53.0038 867.007 52.6147C866.786 52.3769 866.123 51.978 864.161 51.978H859.412L856.117 68.9362C856.059 69.2312 855.801 69.4441 855.501 69.4441H848.912C848.724 69.4441 848.547 69.3604 848.428 69.2157C848.308 69.0711 848.26 68.8808 848.296 68.6969L854.221 38.2095C854.279 37.9148 854.537 37.7018 854.837 37.7018H861.426C861.614 37.7018 861.791 37.7855 861.91 37.93C862.03 38.0748 862.078 38.2649 862.042 38.449L860.612 45.8074H865.721C869.613 45.8074 872.251 46.4934 873.788 47.905C875.355 49.3449 875.844 51.6473 875.242 54.7489L872.485 68.9362C872.427 69.2312 872.169 69.4441 871.869 69.4441H865.175Z" fill="black"/>
<path d="M861.426 37.0742H854.837C854.236 37.0742 853.719 37.5001 853.605 38.0898L847.679 68.5772C847.608 68.9451 847.704 69.3256 847.943 69.6149C848.181 69.9042 848.537 70.0715 848.911 70.0715H855.5C856.101 70.0715 856.618 69.6457 856.732 69.056L859.929 52.6054H864.161C866.119 52.6054 866.53 53.0238 866.547 53.0418C866.665 53.1696 866.822 53.7616 866.564 55.0877L863.943 68.5772C863.871 68.9451 863.968 69.3256 864.206 69.6149C864.445 69.9042 864.8 70.0715 865.175 70.0715H871.868C872.469 70.0715 872.986 69.6457 873.1 69.056L875.857 54.8687C876.504 51.5384 875.951 49.0403 874.213 47.443C872.554 45.92 869.777 45.1797 865.72 45.1797H861.373L862.658 38.5688C862.729 38.2008 862.633 37.8201 862.394 37.5311C862.156 37.2418 861.801 37.0742 861.426 37.0742ZM861.426 38.3293L859.851 46.4348H865.72C869.414 46.4348 871.961 47.0795 873.363 48.3672C874.766 49.6557 875.186 51.7434 874.625 54.6294L871.868 68.8165H865.175L867.796 55.3272C868.094 53.7927 867.985 52.746 867.467 52.1879C866.949 51.6299 865.846 51.3504 864.161 51.3504H858.894L855.5 68.8165H848.911L854.837 38.3293H861.426Z" fill="white"/>
<path d="M885.667 63.3782C888.191 63.3782 890.075 62.9128 891.267 61.9954C892.446 61.0875 893.261 59.5143 893.688 57.3197C894.086 55.2685 893.934 53.8363 893.237 53.0634C892.525 52.274 890.984 51.8736 888.658 51.8736H884.625L882.389 63.3782H885.667ZM872.476 77.5498C872.289 77.5498 872.111 77.4661 871.992 77.3214C871.873 77.1768 871.824 76.9865 871.86 76.8026L877.786 46.3152C877.843 46.0205 878.101 45.8076 878.402 45.8076H891.173C895.186 45.8076 898.174 46.8974 900.052 49.047C901.939 51.2078 902.522 54.2285 901.784 58.025C901.483 59.5717 900.967 61.0081 900.248 62.2941C899.529 63.5815 898.578 64.7728 897.422 65.8354C896.038 67.1306 894.472 68.0698 892.771 68.6224C891.097 69.1678 888.947 69.4443 886.381 69.4443H881.21L879.734 77.0419C879.676 77.3369 879.418 77.5498 879.117 77.5498H872.476Z" fill="black"/>
<path d="M885.142 52.5008H888.658C891.465 52.5008 892.441 53.1168 892.772 53.4839C893.322 54.0935 893.426 55.3786 893.072 57.2001C892.675 59.2398 891.939 60.6858 890.885 61.4978C889.805 62.3291 888.049 62.7504 885.668 62.7504H883.151L885.142 52.5008ZM891.173 45.1797H878.402C877.801 45.1797 877.285 45.6056 877.17 46.1952L871.245 76.6827C871.173 77.0506 871.27 77.4311 871.508 77.7204C871.747 78.0097 872.102 78.177 872.477 78.177H879.118C879.719 78.177 880.235 77.7511 880.35 77.1615L881.728 70.0715H886.382C889.014 70.0715 891.229 69.7845 892.966 69.2187C894.753 68.6382 896.397 67.6538 897.852 66.2932C899.055 65.1864 900.046 63.9441 900.797 62.6002C901.548 61.2558 902.087 59.7567 902.4 58.1443C903.178 54.1481 902.546 50.9481 900.524 48.6338C898.522 46.3419 895.376 45.1797 891.173 45.1797ZM881.628 64.0054H885.668C888.345 64.0054 890.34 63.5011 891.65 62.4922C892.961 61.4832 893.845 59.7991 894.304 57.4392C894.744 55.1734 894.544 53.5745 893.704 52.6431C892.863 51.7116 891.181 51.2458 888.658 51.2458H884.108L881.628 64.0054ZM891.173 46.4347C895.015 46.4347 897.818 47.443 899.579 49.4596C901.341 51.4763 901.871 54.2911 901.168 57.905C900.879 59.3937 900.39 60.7548 899.701 61.9879C899.011 63.2218 898.111 64.3501 896.998 65.3732C895.672 66.6142 894.199 67.4986 892.578 68.0253C890.957 68.5535 888.892 68.8164 886.382 68.8164H880.693L879.118 76.922H872.477L878.402 46.4347H891.173Z" fill="white"/>
</g>
</g>
<line y1="167.5" x2="1081" y2="167.5" stroke="black"/>
<line x1="0.5" y1="148" x2="0.499999" y2="168" stroke="black"/>
<line x1="1080.5" y1="148" x2="1080.5" y2="168" stroke="black"/>
<path d="M458.802 214.352C458.802 216.912 458.322 219.056 457.362 220.784C456.402 222.512 455.015 223.813 453.202 224.688C451.41 225.563 449.244 226 446.706 226H440.306V203.152H447.378C449.703 203.152 451.719 203.579 453.426 204.432C455.132 205.285 456.455 206.544 457.394 208.208C458.332 209.851 458.802 211.899 458.802 214.352ZM455.186 214.448C455.186 212.528 454.876 210.949 454.258 209.712C453.639 208.475 452.722 207.557 451.506 206.96C450.311 206.363 448.86 206.064 447.154 206.064H443.762V223.088H446.546C449.426 223.088 451.58 222.363 453.01 220.912C454.46 219.461 455.186 217.307 455.186 214.448ZM470.174 208.432C471.689 208.432 472.99 208.752 474.078 209.392C475.166 210.011 475.998 210.907 476.574 212.08C477.172 213.253 477.47 214.64 477.47 216.24V218.096H465.886C465.929 219.867 466.388 221.221 467.262 222.16C468.158 223.099 469.406 223.568 471.006 223.568C472.116 223.568 473.097 223.472 473.95 223.28C474.825 223.067 475.721 222.757 476.638 222.352V225.168C475.785 225.552 474.91 225.84 474.014 226.032C473.14 226.224 472.094 226.32 470.878 226.32C469.214 226.32 467.742 225.989 466.462 225.328C465.182 224.667 464.18 223.685 463.454 222.384C462.75 221.061 462.398 219.44 462.398 217.52C462.398 215.579 462.718 213.936 463.358 212.592C464.02 211.248 464.926 210.224 466.078 209.52C467.252 208.795 468.617 208.432 470.174 208.432ZM470.174 211.056C468.958 211.056 467.977 211.451 467.23 212.24C466.505 213.029 466.078 214.149 465.95 215.6H474.078C474.078 214.704 473.94 213.915 473.662 213.232C473.385 212.549 472.958 212.016 472.382 211.632C471.806 211.248 471.07 211.056 470.174 211.056ZM484.95 226L478.422 208.752H482.006L485.59 218.832C485.739 219.259 485.889 219.739 486.038 220.272C486.209 220.805 486.358 221.317 486.486 221.808C486.614 222.299 486.699 222.725 486.742 223.088H486.87C486.934 222.725 487.03 222.299 487.158 221.808C487.307 221.296 487.467 220.784 487.638 220.272C487.809 219.739 487.958 219.259 488.086 218.832L491.67 208.752H495.254L488.694 226H484.95ZM504.706 208.432C506.22 208.432 507.522 208.752 508.61 209.392C509.698 210.011 510.53 210.907 511.106 212.08C511.703 213.253 512.002 214.64 512.002 216.24V218.096H500.418C500.46 219.867 500.919 221.221 501.794 222.16C502.69 223.099 503.938 223.568 505.538 223.568C506.647 223.568 507.628 223.472 508.482 223.28C509.356 223.067 510.252 222.757 511.17 222.352V225.168C510.316 225.552 509.442 225.84 508.546 226.032C507.671 226.224 506.626 226.32 505.41 226.32C503.746 226.32 502.274 225.989 500.994 225.328C499.714 224.667 498.711 223.685 497.986 222.384C497.282 221.061 496.93 219.44 496.93 217.52C496.93 215.579 497.25 213.936 497.89 212.592C498.551 211.248 499.458 210.224 500.61 209.52C501.783 208.795 503.148 208.432 504.706 208.432ZM504.706 211.056C503.49 211.056 502.508 211.451 501.762 212.24C501.036 213.029 500.61 214.149 500.482 215.6H508.61C508.61 214.704 508.471 213.915 508.194 213.232C507.916 212.549 507.49 212.016 506.914 211.632C506.338 211.248 505.602 211.056 504.706 211.056ZM519.626 226H516.234V201.68H519.626V226ZM540.153 217.36C540.153 218.789 539.961 220.059 539.577 221.168C539.193 222.277 538.649 223.216 537.945 223.984C537.241 224.752 536.388 225.339 535.385 225.744C534.382 226.128 533.252 226.32 531.993 226.32C530.841 226.32 529.774 226.128 528.793 225.744C527.812 225.339 526.958 224.752 526.233 223.984C525.529 223.216 524.974 222.277 524.569 221.168C524.164 220.059 523.961 218.779 523.961 217.328C523.961 215.429 524.281 213.819 524.921 212.496C525.582 211.173 526.521 210.171 527.737 209.488C528.974 208.784 530.425 208.432 532.089 208.432C533.668 208.432 535.054 208.784 536.249 209.488C537.465 210.171 538.414 211.173 539.097 212.496C539.801 213.819 540.153 215.44 540.153 217.36ZM527.449 217.36C527.449 218.64 527.609 219.749 527.929 220.688C528.249 221.605 528.75 222.309 529.433 222.8C530.116 223.291 530.99 223.536 532.057 223.536C533.124 223.536 533.998 223.291 534.681 222.8C535.364 222.309 535.865 221.605 536.185 220.688C536.505 219.749 536.665 218.64 536.665 217.36C536.665 216.037 536.494 214.928 536.153 214.032C535.833 213.136 535.332 212.453 534.649 211.984C533.988 211.493 533.113 211.248 532.025 211.248C530.425 211.248 529.262 211.781 528.537 212.848C527.812 213.915 527.449 215.419 527.449 217.36ZM553.061 208.432C555.13 208.432 556.794 209.179 558.053 210.672C559.333 212.165 559.973 214.395 559.973 217.36C559.973 219.301 559.685 220.944 559.109 222.288C558.533 223.632 557.722 224.645 556.677 225.328C555.632 225.989 554.416 226.32 553.029 226.32C552.154 226.32 551.386 226.213 550.725 226C550.064 225.765 549.498 225.467 549.029 225.104C548.581 224.72 548.186 224.315 547.845 223.888H547.621C547.685 224.272 547.738 224.731 547.781 225.264C547.824 225.776 547.845 226.235 547.845 226.64V233.68H544.453V208.752H547.205L547.685 211.056H547.845C548.186 210.587 548.592 210.149 549.061 209.744C549.53 209.339 550.096 209.019 550.757 208.784C551.418 208.549 552.186 208.432 553.061 208.432ZM552.261 211.216C551.194 211.216 550.341 211.429 549.701 211.856C549.061 212.261 548.592 212.88 548.293 213.712C548.016 214.523 547.866 215.557 547.845 216.816V217.328C547.845 218.651 547.984 219.781 548.261 220.72C548.538 221.637 548.997 222.341 549.637 222.832C550.298 223.301 551.194 223.536 552.325 223.536C553.285 223.536 554.064 223.28 554.661 222.768C555.28 222.235 555.738 221.499 556.037 220.56C556.336 219.621 556.485 218.533 556.485 217.296C556.485 215.419 556.144 213.936 555.461 212.848C554.778 211.76 553.712 211.216 552.261 211.216ZM583.625 208.432C585.566 208.432 587.027 208.933 588.009 209.936C588.99 210.939 589.481 212.549 589.481 214.768V226H586.089V215.216C586.089 213.893 585.822 212.901 585.289 212.24C584.777 211.557 583.966 211.216 582.857 211.216C581.321 211.216 580.222 211.696 579.561 212.656C578.899 213.595 578.569 214.96 578.569 216.752V226H575.209V215.216C575.209 214.341 575.081 213.605 574.825 213.008C574.59 212.411 574.238 211.963 573.769 211.664C573.299 211.365 572.691 211.216 571.945 211.216C570.878 211.216 570.035 211.451 569.417 211.92C568.798 212.389 568.35 213.083 568.073 214C567.817 214.896 567.689 215.995 567.689 217.296V226H564.297V208.752H566.985L567.465 211.056H567.657C568.019 210.459 568.457 209.968 568.969 209.584C569.502 209.2 570.089 208.912 570.729 208.72C571.369 208.528 572.03 208.432 572.713 208.432C574.014 208.432 575.113 208.667 576.009 209.136C576.905 209.584 577.555 210.277 577.961 211.216H578.217C578.771 210.256 579.539 209.552 580.521 209.104C581.502 208.656 582.537 208.432 583.625 208.432ZM601.456 208.432C602.97 208.432 604.272 208.752 605.36 209.392C606.448 210.011 607.28 210.907 607.856 212.08C608.453 213.253 608.752 214.64 608.752 216.24V218.096H597.168C597.21 219.867 597.669 221.221 598.544 222.16C599.44 223.099 600.688 223.568 602.288 223.568C603.397 223.568 604.378 223.472 605.232 223.28C606.106 223.067 607.002 222.757 607.92 222.352V225.168C607.066 225.552 606.192 225.84 605.296 226.032C604.421 226.224 603.376 226.32 602.16 226.32C600.496 226.32 599.024 225.989 597.744 225.328C596.464 224.667 595.461 223.685 594.736 222.384C594.032 221.061 593.68 219.44 593.68 217.52C593.68 215.579 594 213.936 594.64 212.592C595.301 211.248 596.208 210.224 597.36 209.52C598.533 208.795 599.898 208.432 601.456 208.432ZM601.456 211.056C600.24 211.056 599.258 211.451 598.512 212.24C597.786 213.029 597.36 214.149 597.232 215.6H605.36C605.36 214.704 605.221 213.915 604.944 213.232C604.666 212.549 604.24 212.016 603.664 211.632C603.088 211.248 602.352 211.056 601.456 211.056ZM621.72 208.432C623.725 208.432 625.261 208.933 626.328 209.936C627.395 210.939 627.928 212.549 627.928 214.768V226H624.568V215.248C624.568 213.904 624.28 212.901 623.704 212.24C623.149 211.557 622.253 211.216 621.016 211.216C619.267 211.216 618.051 211.739 617.368 212.784C616.707 213.829 616.376 215.333 616.376 217.296V226H612.984V208.752H615.672L616.152 211.056H616.344C616.728 210.459 617.197 209.968 617.752 209.584C618.307 209.2 618.925 208.912 619.608 208.72C620.291 208.528 620.995 208.432 621.72 208.432ZM639.348 223.568C639.796 223.568 640.255 223.525 640.724 223.44C641.194 223.355 641.599 223.259 641.94 223.152V225.712C641.578 225.883 641.087 226.021 640.468 226.128C639.85 226.256 639.231 226.32 638.612 226.32C637.674 226.32 636.81 226.16 636.02 225.84C635.252 225.52 634.634 224.965 634.164 224.176C633.695 223.387 633.46 222.288 633.46 220.88V211.344H631.06V209.808L633.588 208.528L634.772 204.88H636.852V208.752H641.78V211.344H636.852V220.816C636.852 221.755 637.076 222.448 637.524 222.896C637.994 223.344 638.602 223.568 639.348 223.568Z" fill="black"/>
<defs>
<radialGradient id="paint0_radial_39_343" cx="0" cy="0" r="1" gradientUnits="userSpaceOnUse" gradientTransform="translate(837.133 40.1595) scale(75.9425)">
<stop stop-color="#AEB2D5"/>
<stop offset="0.3" stop-color="#AEB2D5"/>
<stop offset="0.75" stop-color="#484C89"/>
<stop offset="1" stop-color="#484C89"/>
</radialGradient>
<clipPath id="clip0_39_343">
<rect width="120" height="120" fill="white" transform="translate(640)"/>
</clipPath>
<clipPath id="clip1_39_343">
<rect width="120" height="120" fill="white" transform="translate(800)"/>
</clipPath>
</defs>
</svg>
