<svg xmlns="http://www.w3.org/2000/svg" width="1200pt" height="1200pt" version="1.1" viewBox="0 0 1200 1200">
 <path d="m787.78 289.74c-7.3125-7.3125-19.172-7.3125-26.531 0l-86.906 86.906c-7.3125 7.3125-7.3125 19.172 0 26.531l86.906 86.906c3.6562 3.6562 8.4375 5.4844 13.266 5.4844 4.7812 0 9.6094-1.8281 13.266-5.4844 7.3125-7.3125 7.3125-19.172 0-26.531l-73.641-73.641 73.641-73.641c7.3125-7.3125 7.3125-19.172 0-26.531z" fill="#fe5a49"/>
 <path d="m996.61 289.74c-7.3125-7.3125-19.172-7.3125-26.531 0-7.3125 7.3125-7.3125 19.172 0 26.531l73.641 73.641-73.641 73.641c-7.3125 7.3125-7.3125 19.172 0 26.531 3.6562 3.6562 8.4375 5.4844 13.266 5.4844 4.7812 0 9.6094-1.8281 13.266-5.4844l86.906-86.906c7.3125-7.3125 7.3125-19.172 0-26.531z" fill="#fe5a49"/>
 <path d="m839.34 495.56c7.125 0 13.922-4.0781 17.062-10.969l79.219-173.81c4.3125-9.4219 0.14062-20.531-9.2812-24.844s-20.531-0.09375-24.844 9.2812l-79.219 173.81c-4.3125 9.4219-0.14062 20.531 9.2812 24.844 2.5312 1.125 5.1562 1.6875 7.7812 1.6875z" fill="#fe5a49"/>
 <path d="m520.26 1021.8h499.78l98.344-321.37h-499.78z" fill="#fe5a49"/>
 <path d="m75 744.14v203.26c0 41.016 33.375 74.344 74.344 74.344h210.94c16.594 0 32.719-6.9375 44.156-19.031 10.406-10.969 15.703-24.938 14.906-39.281-0.75-13.594-6.4688-26.391-16.125-36.094-10.5-10.453-24.375-16.219-39.188-16.219h-128.44c-18.422 0-33.422-15-33.422-33.422v-112.92c0-10.359 8.3906-18.75 18.75-18.75s18.75 8.3906 18.75 18.75v108.84h124.4c24.797 0 48.094 9.6562 65.672 27.188 16.219 16.219 25.828 37.734 27.047 60.562 1.2188 21.938-6.0938 42.938-19.875 60.375h44.156l105.75-345.56c2.4375-7.875 9.7031-13.266 17.906-13.266h36.844c-29.719-56.062-88.406-92.203-153.32-92.203h-240c-95.531 0-173.26 77.812-173.26 173.44z" fill="#fe5a49"/>
 <path d="m368.29 474.66c81.703 0 148.22-66.469 148.22-148.22s-66.469-148.22-148.22-148.22c-81.703 0-148.22 66.469-148.22 148.22s66.469 148.22 148.22 148.22z" fill="#fe5a49"/>
</svg>