<svg width="281" height="236" viewBox="0 0 281 236" fill="none" xmlns="http://www.w3.org/2000/svg">
<path d="M59.5003 1C27.1834 1 1 27.1834 1 59.5C1 91.8168 27.1834 118 59.5003 118C91.8168 118 118 91.8168 118 59.5C118 27.1834 91.8171 1 59.5003 1Z" fill="#E14715"/>
<path d="M71.9307 22.9376C74.0072 19.352 78.6069 18.1019 82.1922 20.1776C85.8011 22.2536 87.0281 26.853 84.9524 30.4625C82.8766 34.048 78.2765 35.2979 74.6912 33.2224C71.082 31.123 69.8555 26.5231 71.9307 22.9376Z" fill="white"/>
<path d="M21.6165 67.0249C17.4647 67.0249 14.0918 63.6512 14.0918 59.5C14.0918 55.3485 17.4647 51.9751 21.6165 51.9751C25.7682 51.9751 29.1411 55.3485 29.1411 59.5C29.1411 63.6512 25.7682 67.0249 21.6165 67.0249Z" fill="white"/>
<path d="M28.2451 67.7566C33.5053 63.5334 33.529 55.5138 28.2451 51.2677C30.2735 43.5304 35.1095 36.9491 41.5727 32.6089L47.1633 41.9499C35.0151 50.5125 35.0151 68.4874 47.1633 77.0503L41.5727 86.3912C35.1092 82.0744 30.2972 75.4697 28.2451 67.7566Z" fill="white"/>
<path d="M82.1922 98.8228C78.5835 100.898 74.0072 99.6716 71.9307 96.0623C69.8555 92.4536 71.082 87.854 74.6912 85.7777C78.2765 83.702 82.8766 84.9285 84.9524 88.5379C87.0279 92.1469 85.8011 96.7468 82.1922 98.8228Z" fill="white"/>
<path d="M82.2629 82.4285C75.965 79.999 69.0299 83.9851 67.9919 90.6842C66.7652 91.0148 56.4569 94.0579 45.1816 88.467L50.4891 78.9607C63.9348 85.2119 79.5973 76.2008 80.895 61.4106L91.7692 61.5757C91.2267 69.7134 87.6887 77.0264 82.2629 82.4285Z" fill="white"/>
<path d="M80.8716 57.5893C79.5976 42.9642 64.0528 33.7176 50.466 40.0395L45.1582 30.5332C56.4571 24.9429 66.7417 27.9854 67.9687 28.3155C69.0065 34.9912 75.9415 39.0015 82.2397 36.5717C87.6889 41.9733 91.2032 49.2858 91.7221 57.4476L80.8716 57.5893Z" fill="white"/>
<path d="M225.632 32.2195H213.612V43.1476H225.632V32.2195Z" fill="#099CEC"/>
<path d="M225.632 45.3481H213.612V56.149H225.632V45.3481Z" fill="#099CEC"/>
<path d="M211.43 32.2195H199.411V43.1476H211.43V32.2195Z" fill="#099CEC"/>
<path d="M239.851 45.3298H227.831V56.1309H239.851V45.3298Z" fill="#099CEC"/>
<path d="M225.632 19H213.612V30.0374H225.632V19Z" fill="#099CEC"/>
<path d="M197.229 32.2195H185.21V43.1476H197.229V32.2195Z" fill="#099CEC"/>
<path d="M211.43 45.3298H199.411V56.1309H211.43V45.3298Z" fill="#099CEC"/>
<path d="M275.964 50.4032C273.345 48.6392 267.309 48.0029 262.672 48.876C262.072 44.5119 259.635 40.7115 255.198 37.2929L252.653 35.6016L250.961 38.1473C247.615 43.2024 246.707 51.5303 250.289 57.022C248.707 57.8764 245.597 59.0405 241.488 58.9674H162.444C160.862 68.2049 163.499 80.206 170.445 88.4428C177.191 96.4254 187.301 100.481 200.521 100.481C229.142 100.481 250.325 87.298 260.235 63.3495C264.127 63.4223 272.527 63.3679 276.837 55.1311C277.11 54.6764 278.037 52.7305 278.382 52.0214L275.964 50.4032Z" fill="#099CEC"/>
<path d="M183.046 45.3298H183.027H171.026V56.1309H183.046V45.3298Z" fill="#099CEC"/>
<path d="M197.229 45.3298H185.21V56.1309H197.229V45.3298Z" fill="#099CEC"/>
<line y1="167.5" x2="280" y2="167.5" stroke="black"/>
<line x1="0.5" y1="148" x2="0.499999" y2="168" stroke="black"/>
<line x1="280.5" y1="148" x2="280.5" y2="168" stroke="black"/>
<path d="M82.8016 214.352C82.8016 216.912 82.3216 219.056 81.3616 220.784C80.4016 222.512 79.015 223.813 77.2016 224.688C75.4096 225.563 73.2443 226 70.7056 226H64.3056V203.152H71.3776C73.703 203.152 75.719 203.579 77.4256 204.432C79.1323 205.285 80.455 206.544 81.3936 208.208C82.3323 209.851 82.8016 211.899 82.8016 214.352ZM79.1856 214.448C79.1856 212.528 78.8763 210.949 78.2576 209.712C77.639 208.475 76.7216 207.557 75.5056 206.96C74.311 206.363 72.8603 206.064 71.1536 206.064H67.7616V223.088H70.5456C73.4256 223.088 75.5803 222.363 77.0096 220.912C78.4603 219.461 79.1856 217.307 79.1856 214.448ZM94.1744 208.432C95.689 208.432 96.9904 208.752 98.0784 209.392C99.1664 210.011 99.9984 210.907 100.574 212.08C101.172 213.253 101.47 214.64 101.47 216.24V218.096H89.8864C89.929 219.867 90.3877 221.221 91.2624 222.16C92.1584 223.099 93.4064 223.568 95.0064 223.568C96.1157 223.568 97.097 223.472 97.9504 223.28C98.825 223.067 99.721 222.757 100.638 222.352V225.168C99.785 225.552 98.9104 225.84 98.0144 226.032C97.1397 226.224 96.0944 226.32 94.8784 226.32C93.2144 226.32 91.7424 225.989 90.4624 225.328C89.1824 224.667 88.1797 223.685 87.4544 222.384C86.7504 221.061 86.3984 219.44 86.3984 217.52C86.3984 215.579 86.7184 213.936 87.3584 212.592C88.0197 211.248 88.9264 210.224 90.0784 209.52C91.2517 208.795 92.617 208.432 94.1744 208.432ZM94.1744 211.056C92.9584 211.056 91.977 211.451 91.2304 212.24C90.505 213.029 90.0784 214.149 89.9504 215.6H98.0784C98.0784 214.704 97.9397 213.915 97.6624 213.232C97.385 212.549 96.9584 212.016 96.3824 211.632C95.8064 211.248 95.0704 211.056 94.1744 211.056ZM108.95 226L102.422 208.752H106.006L109.59 218.832C109.739 219.259 109.889 219.739 110.038 220.272C110.209 220.805 110.358 221.317 110.486 221.808C110.614 222.299 110.699 222.725 110.742 223.088H110.87C110.934 222.725 111.03 222.299 111.158 221.808C111.307 221.296 111.467 220.784 111.638 220.272C111.809 219.739 111.958 219.259 112.086 218.832L115.67 208.752H119.254L112.694 226H108.95ZM142.466 214.544C142.466 216.315 142.242 217.925 141.794 219.376C141.367 220.805 140.706 222.043 139.81 223.088C138.935 224.133 137.826 224.933 136.482 225.488C135.159 226.043 133.612 226.32 131.842 226.32C130.028 226.32 128.45 226.043 127.106 225.488C125.783 224.912 124.674 224.112 123.778 223.088C122.903 222.043 122.252 220.795 121.826 219.344C121.399 217.893 121.186 216.283 121.186 214.512C121.186 212.165 121.57 210.117 122.338 208.368C123.106 206.619 124.279 205.253 125.858 204.272C127.458 203.291 129.463 202.8 131.874 202.8C134.22 202.8 136.172 203.291 137.73 204.272C139.308 205.232 140.492 206.597 141.282 208.368C142.071 210.117 142.466 212.176 142.466 214.544ZM124.834 214.544C124.834 216.379 125.079 217.957 125.57 219.28C126.06 220.581 126.828 221.595 127.874 222.32C128.919 223.024 130.242 223.376 131.842 223.376C133.463 223.376 134.786 223.024 135.81 222.32C136.834 221.595 137.591 220.581 138.082 219.28C138.572 217.957 138.818 216.379 138.818 214.544C138.818 211.792 138.263 209.648 137.154 208.112C136.066 206.555 134.306 205.776 131.874 205.776C130.252 205.776 128.919 206.128 127.874 206.832C126.828 207.536 126.06 208.539 125.57 209.84C125.079 211.141 124.834 212.709 124.834 214.544ZM155.655 208.432C157.724 208.432 159.388 209.179 160.647 210.672C161.927 212.165 162.567 214.395 162.567 217.36C162.567 219.301 162.279 220.944 161.703 222.288C161.127 223.632 160.316 224.645 159.271 225.328C158.225 225.989 157.009 226.32 155.623 226.32C154.748 226.32 153.98 226.213 153.319 226C152.657 225.765 152.092 225.467 151.623 225.104C151.175 224.72 150.78 224.315 150.439 223.888H150.215C150.279 224.272 150.332 224.731 150.375 225.264C150.417 225.776 150.439 226.235 150.439 226.64V233.68H147.047V208.752H149.799L150.279 211.056H150.439C150.78 210.587 151.185 210.149 151.655 209.744C152.124 209.339 152.689 209.019 153.351 208.784C154.012 208.549 154.78 208.432 155.655 208.432ZM154.855 211.216C153.788 211.216 152.935 211.429 152.295 211.856C151.655 212.261 151.185 212.88 150.887 213.712C150.609 214.523 150.46 215.557 150.439 216.816V217.328C150.439 218.651 150.577 219.781 150.855 220.72C151.132 221.637 151.591 222.341 152.231 222.832C152.892 223.301 153.788 223.536 154.919 223.536C155.879 223.536 156.657 223.28 157.255 222.768C157.873 222.235 158.332 221.499 158.631 220.56C158.929 219.621 159.079 218.533 159.079 217.296C159.079 215.419 158.737 213.936 158.055 212.848C157.372 211.76 156.305 211.216 154.855 211.216ZM178.346 221.136C178.346 222.267 178.069 223.216 177.514 223.984C176.96 224.752 176.16 225.339 175.114 225.744C174.069 226.128 172.81 226.32 171.338 226.32C170.122 226.32 169.077 226.224 168.202 226.032C167.349 225.861 166.56 225.605 165.834 225.264V222.288C166.602 222.651 167.488 222.981 168.49 223.28C169.493 223.557 170.474 223.696 171.434 223.696C172.714 223.696 173.632 223.493 174.186 223.088C174.762 222.683 175.05 222.139 175.05 221.456C175.05 221.072 174.944 220.731 174.73 220.432C174.517 220.112 174.112 219.792 173.514 219.472C172.938 219.131 172.085 218.747 170.954 218.32C169.866 217.872 168.938 217.435 168.17 217.008C167.402 216.56 166.816 216.037 166.41 215.44C166.005 214.821 165.802 214.032 165.802 213.072C165.802 211.579 166.4 210.437 167.594 209.648C168.81 208.837 170.41 208.432 172.394 208.432C173.44 208.432 174.421 208.539 175.338 208.752C176.277 208.944 177.184 209.243 178.058 209.648L176.938 212.24C176.448 212.005 175.936 211.813 175.402 211.664C174.89 211.493 174.368 211.355 173.834 211.248C173.322 211.141 172.789 211.088 172.234 211.088C171.21 211.088 170.432 211.248 169.898 211.568C169.365 211.888 169.098 212.336 169.098 212.912C169.098 213.317 169.216 213.669 169.45 213.968C169.706 214.267 170.144 214.565 170.762 214.864C171.381 215.163 172.224 215.525 173.29 215.952C174.357 216.357 175.264 216.773 176.01 217.2C176.778 217.627 177.354 218.149 177.738 218.768C178.144 219.387 178.346 220.176 178.346 221.136Z" fill="black"/>
</svg>
