<svg xmlns="http://www.w3.org/2000/svg" xmlns:serif="http://www.serif.com/" xmlns:xlink="http://www.w3.org/1999/xlink" height="100%" style="fill-rule:evenodd;clip-rule:evenodd;stroke-linejoin:round;stroke-miterlimit:1.41421;" version="1.1" viewBox="0 0 49 49" width="100%" xml:space="preserve"><path d="M34.246,12.637c-0.398,0 -0.779,0.158 -1.061,0.44c-0.281,0.281 -0.439,0.663 -0.439,1.06c0,5.107 0,21.5 0,21.5c0,4.42 -3.58,8 -8,8c-4.42,0 -8,-3.58 -8,-8l0,-25c0,-2.76 2.24,-5 5,-5c2.76,0 5,2.24 5,5l0,21c0,1.1 -0.9,2 -2,2c-1.1,0 -2,-0.9 -2,-2c0,0 0,-13.012 0,-17.5c0,-0.397 -0.158,-0.779 -0.439,-1.06c-0.282,-0.282 -0.663,-0.44 -1.061,-0.44c-0.398,0 -0.779,0.158 -1.061,0.44c-0.281,0.281 -0.439,0.663 -0.439,1.06c0,4.488 0,17.5 0,17.5c0,2.76 2.24,5 5,5c2.76,0 5,-2.24 5,-5l0,-21c0,-4.42 -3.58,-8 -8,-8c-4.42,0 -8,3.58 -8,8l0,25c0,6.08 4.92,11 11,11c6.08,0 11,-4.92 11,-11c0,0 0,-16.393 0,-21.5c0,-0.397 -0.158,-0.779 -0.439,-1.06c-0.282,-0.282 -0.663,-0.44 -1.061,-0.44c0,0 0,0 0,0Z" style="fill:#ffffff;fill-rule:nonzero;"/><rect height="48" style="fill:none;" width="48" x="0.746" y="0.637"/></svg>