<svg xmlns="http://www.w3.org/2000/svg" width="1200pt" height="1200pt" version="1.1" viewBox="0 0 1200 1200">
 <path d="m373.55 181.4c6.9844-30.281-11.859-60.469-42.141-67.453s-60.469 11.859-67.453 42.141l-56.25 243.74c-3.5156 15.094-0.60938 30.984 8.0156 43.875l140.53 210.79v376.74c0 31.078 25.172 56.25 56.25 56.25s56.25-25.172 56.25-56.25v-292.22l238.97-214.03h304.78c31.078 0 56.25-25.172 56.25-56.25s-25.172-56.25-56.25-56.25h-313.87c-38.766 0-76.312-13.359-106.41-37.781l-221.72-180.14zm108.28 248.58-139.5-113.34-19.547 84.844 71.016 106.59z" fill-rule="evenodd" fill="#fe5a49"/>
 <path d="m806.26 262.5c0 62.109-50.344 112.5-112.5 112.5s-112.5-50.391-112.5-112.5 50.344-112.5 112.5-112.5 112.5 50.391 112.5 112.5z" fill="#fe5a49"/>
</svg>