<svg width="48" height="48" viewBox="0 0 48 48" fill="none" xmlns="http://www.w3.org/2000/svg">
<path d="M24 1.9C11.7889 1.9 1.9 11.7889 1.9 24C1.9 36.2111 11.7889 46.1 24 46.1C36.2111 46.1 46.1 36.2111 46.1 24C46.1 11.7889 36.2111 1.9 24 1.9ZM24 44.525C12.6707 44.525 3.475 35.3293 3.475 24C3.475 12.6707 12.6707 3.475 24 3.475C35.3293 3.475 44.525 12.6707 44.525 24C44.525 35.3293 35.3293 44.525 24 44.525Z" fill="#FE5A49" stroke="#FE5A49" stroke-width="0.2"/>
<path d="M31.5904 27.6405H21.525C21.0852 27.6405 20.7096 28.0161 20.7096 28.4559C20.7096 28.8957 21.0852 29.2713 21.525 29.2713H31.5904C32.0302 29.2713 32.4059 28.8957 32.4059 28.4559C32.4059 28.0137 32.03 27.6405 31.5904 27.6405Z" fill="#FE5A49" stroke="#FE5A49" stroke-width="0.2"/>
<path d="M31.5904 31.931H21.525C21.0852 31.931 20.7096 32.3066 20.7096 32.7464C20.7096 33.1862 21.0852 33.5618 21.525 33.5618H31.5904C32.0302 33.5618 32.4059 33.1862 32.4059 32.7464C32.4059 32.2457 32.025 31.931 31.5904 31.931Z" fill="#FE5A49" stroke="#FE5A49" stroke-width="0.2"/>
<path d="M31.5904 36.1654H21.525C21.0852 36.1654 20.7096 36.541 20.7096 36.9808C20.7096 37.4206 21.0852 37.7962 21.525 37.7962H31.5904C32.0302 37.7962 32.4059 37.4206 32.4059 36.9808C32.4059 36.5387 32.03 36.1654 31.5904 36.1654Z" fill="#FE5A49" stroke="#FE5A49" stroke-width="0.2"/>
<path d="M20.7097 22.5251H17.6193C17.1795 22.5251 16.8039 22.9007 16.8039 23.3405V23.3477L16.8049 23.3549C16.8652 23.7702 17.1685 24.1558 17.6191 24.1559C17.6192 24.1559 17.6192 24.1559 17.6193 24.1559H24.825C25.2648 24.1559 25.6404 23.7803 25.6404 23.3405C25.6404 22.9007 25.2648 22.5251 24.825 22.5251H22.3404V18.5835C24.2724 18.2104 25.75 16.4853 25.75 14.4309V9.75594C25.75 9.31614 25.3744 8.94053 24.9346 8.94053H18.1155C17.6757 8.94053 17.3001 9.31616 17.3001 9.75594V14.4309C17.3001 16.4853 18.7776 18.2125 20.7097 18.5836V22.5251ZM18.9308 14.4309V10.5713H24.2308V14.4309C24.2308 15.8616 23.0647 17.0809 21.5808 17.0809C20.0957 17.0809 18.9308 15.914 18.9308 14.4309Z" fill="#FE5A49" stroke="#FE5A49" stroke-width="0.2"/>
<path d="M31.5904 9.38071H31.4904V9.38726C31.0952 9.4388 30.775 9.79015 30.775 10.1962V14.8712C30.775 16.3019 29.6089 17.5212 28.125 17.5212C27.6852 17.5212 27.3096 17.8968 27.3096 18.3366V23.3961C27.3096 23.8359 27.6852 24.2115 28.125 24.2115C28.5648 24.2115 28.9404 23.8359 28.9404 23.3961V19.0237C30.8724 18.6506 32.35 16.9255 32.35 14.8711V10.2023C32.3795 9.95547 32.3014 9.74784 32.1561 9.60255C32.0113 9.45773 31.8059 9.38071 31.5904 9.38071Z" fill="#FE5A49" stroke="#FE5A49" stroke-width="0.2"/>
<path d="M28.1809 14.6941C28.6207 14.6941 28.9963 14.3185 28.9963 13.8787V10.1383C28.9963 9.69847 28.6207 9.32285 28.1809 9.32285C27.7411 9.32285 27.3655 9.69849 27.3655 10.1383V13.8787C27.3655 14.3206 27.739 14.6941 28.1809 14.6941Z" fill="#FE5A49" stroke="#FE5A49" stroke-width="0.2"/>
<path d="M17.6191 27.0904C16.8485 27.0904 16.2537 27.6852 16.2537 28.4558C16.2537 29.2265 16.8485 29.8213 17.6191 29.8213C18.3898 29.8213 18.9845 29.2265 18.9845 28.4558C18.9845 27.6852 18.3898 27.0904 17.6191 27.0904Z" fill="#FE5A49" stroke="#FE5A49" stroke-width="0.2"/>
<path d="M17.6191 31.381C16.8485 31.381 16.2537 31.9757 16.2537 32.7464C16.2537 33.517 16.8485 34.1118 17.6191 34.1118C18.3898 34.1118 18.9845 33.517 18.9845 32.7464C18.9845 31.9757 18.3898 31.381 17.6191 31.381Z" fill="#FE5A49" stroke="#FE5A49" stroke-width="0.2"/>
<path d="M17.6191 35.6156C16.8485 35.6156 16.2537 36.2103 16.2537 36.981C16.2537 37.7516 16.8485 38.3464 17.6191 38.3464C18.3898 38.3464 18.9845 37.7516 18.9845 36.981C18.9845 36.2103 18.3898 35.6156 17.6191 35.6156Z" fill="#FE5A49" stroke="#FE5A49" stroke-width="0.2"/>
</svg>
