<svg width="48" height="48" viewBox="0 0 48 48" fill="none" xmlns="http://www.w3.org/2000/svg">
<path d="M5.96726 20.3935C7.04928 20.3935 7.93447 19.5083 7.93447 18.4263V11.4886C7.93447 9.52797 9.52791 7.93453 11.4885 7.93453H19.8492L22.4917 14.5444C23.5934 17.2983 26.2229 19.082 29.1868 19.082H40.7146V35.8557C40.7146 37.8163 39.1212 39.4098 37.1606 39.4098H32.1901C31.108 39.4098 30.2228 40.295 30.2228 41.377C30.2228 42.459 31.108 43.3442 32.1901 43.3442H37.1606C41.2918 43.3442 44.6491 39.9868 44.6491 35.8557V11.4885C44.6491 7.35726 41.2917 4 37.1606 4H11.4885C7.35726 4 4 7.35743 4 11.4885V18.4262C4 19.5082 4.88519 20.3934 5.96721 20.3934L5.96726 20.3935ZM37.1672 7.93447C39.1278 7.93447 40.7212 9.52791 40.7212 11.4885V15.1476H29.1934C27.8426 15.1476 26.6492 14.3409 26.1508 13.0886L24.0918 7.93447H37.1737H37.1672Z" fill="#FE5A49" stroke="#ECEEF0" stroke-width="2"/>
<path d="M8.59022 44H19.082C21.6131 44 23.6722 41.941 23.6722 39.4098V32.8525C23.6722 31.4163 22.9835 30.0393 21.836 29.1804L16.5901 25.246C15.79 24.6427 14.8393 24.3279 13.8361 24.3279C12.8329 24.3279 11.8819 24.6427 11.0821 25.246L5.83623 29.1804C4.68869 30.0393 4.00006 31.4166 4.00006 32.8525V39.4098C4.00006 41.941 6.05907 44 8.59022 44ZM7.93448 32.8525C7.93448 32.6556 8.0395 32.4458 8.19682 32.3278L13.4427 28.3934C13.5608 28.3082 13.6854 28.2623 13.8361 28.2623C13.987 28.2623 14.1115 28.3016 14.2295 28.3934L19.4754 32.3278C19.6327 32.4458 19.7377 32.6556 19.7377 32.8525V39.4098C19.7377 39.7639 19.4361 40.0656 19.082 40.0656H8.59022C8.23609 40.0656 7.93448 39.7639 7.93448 39.4098V32.8525Z" fill="#FE5A49" stroke="#ECEEF0" stroke-width="2"/>
</svg>
