<svg width="48" height="48" viewBox="0 0 48 48" fill="none" xmlns="http://www.w3.org/2000/svg">
<path d="M18.2857 4.75V7.5H29.7143V4.75C29.7143 3.23148 30.9911 2 32.5714 2C34.1518 2 35.4286 3.23148 35.4286 4.75V7.5H39.7143C42.0804 7.5 44 9.3468 44 11.625V15.75H4V11.625C4 9.3468 5.91875 7.5 8.28571 7.5H12.5714V4.75C12.5714 3.23148 13.8482 2 15.4286 2C17.0089 2 18.2857 3.23148 18.2857 4.75ZM4 18.5H44V41.875C44 44.1523 42.0804 46 39.7143 46H8.28571C5.91875 46 4 44.1523 4 41.875V18.5ZM33.2946 28.1336C34.2054 27.4031 34.2054 26.0969 33.2946 25.2891C32.5357 24.4898 31.1786 24.4898 30.3393 25.2891L21.8571 33.4617L17.5804 29.4141C16.8214 28.6148 15.4643 28.6148 14.625 29.4141C13.7946 30.2219 13.7946 31.5281 14.625 32.2586L20.3393 37.7586C21.1786 38.6352 22.5357 38.6352 23.2946 37.7586L33.2946 28.1336Z" fill="black"/>
</svg>
