<svg width="48" height="48" viewBox="0 0 48 48" fill="none" xmlns="http://www.w3.org/2000/svg">
<g clip-path="url(#clip0_511_3831)">
<path d="M47.8408 1.66712C47.7398 0.859501 47.1332 0.253631 46.3244 0.152758C42.6852 -0.251138 32.1714 -0.503548 21.6072 8.33029C20.394 9.33986 18.8271 9.79421 17.2602 9.54182C14.9856 9.13792 11.3462 9.13792 8.46504 12.0657L4.62354 15.9021C3.56211 16.9621 3.91585 18.7288 5.23002 19.3347L11.5483 22.2119L8.21231 26.8559C7.3531 28.0675 7.45411 29.7331 8.51556 30.7933L17.2601 39.5261C18.3216 40.5861 19.9897 40.7377 21.2028 39.829L25.8531 36.447L28.7849 42.7568C29.3914 44.1197 31.2112 44.4227 32.2727 43.3625L36.1142 39.5261C38.9952 36.649 38.9952 33.0144 38.591 30.7429C38.3383 29.1781 38.7932 27.6133 39.8042 26.4017C48.5487 15.7507 48.2454 5.30167 47.8411 1.66721L47.8408 1.66712ZM35.7602 19.3851C33.7889 21.3538 30.6045 21.3538 28.6331 19.3851C26.6618 17.4164 26.6618 14.2363 28.6331 12.2676C30.6045 10.2989 33.7889 10.2989 35.7602 12.2676C37.7316 14.2362 37.7316 17.4164 35.7602 19.3851Z" fill="black"/>
<path d="M5.5227 35.3019C6.1591 34.5622 6.1591 33.2942 5.5227 32.5548C4.8863 31.8151 3.79536 31.8151 3.15915 32.5548L0.4773 35.6718C-0.1591 36.4115 -0.1591 37.6795 0.4773 38.4189C0.79542 38.7886 1.24995 39 1.65908 39C2.0682 39 2.52275 38.7886 2.84085 38.4189L5.5227 35.3019Z" fill="black"/>
<path d="M10.4272 36.6345C9.66355 35.7885 8.35441 35.7885 7.59096 36.6345L2.57276 42.1935C1.80908 43.0394 1.80908 44.4897 2.57276 45.3354C2.95451 45.7583 3.49995 46 3.9909 46C4.48186 46 5.02731 45.7583 5.40904 45.3354L10.4272 39.7764C11.1909 38.9304 11.1909 37.4804 10.4272 36.6345Z" fill="black"/>
<path d="M12.1591 42.4755L9.4773 45.1473C8.8409 45.7813 8.8409 46.8681 9.4773 47.5019C9.79542 47.8188 10.2499 48 10.6591 48C11.0682 48 11.5227 47.8188 11.8409 47.5019L14.5227 44.8302C15.1591 44.1962 15.1591 43.1093 14.5227 42.4755C13.8863 41.8415 12.841 41.8415 12.1591 42.4755Z" fill="black"/>
</g>
<defs>
<clipPath id="clip0_511_3831">
<rect width="48" height="48" fill="white"/>
</clipPath>
</defs>
</svg>
