<svg width="48" height="48" viewBox="0 0 48 48" fill="none" xmlns="http://www.w3.org/2000/svg">
<path d="M23.5 46C24.7366 45.9961 25.8983 45.4073 26.6326 44.4124C27.3669 43.4177 27.5873 42.134 27.2268 40.9512C26.8664 39.7685 25.9675 38.8259 24.8031 38.4098V21.2423C24.8031 20.7768 24.5547 20.3467 24.1516 20.1139C23.7484 19.8811 23.2516 19.8811 22.8485 20.1139C22.4454 20.3467 22.197 20.7768 22.197 21.2423V38.4098C21.0326 38.8259 20.1337 39.7684 19.7733 40.9512C19.4128 42.1339 19.6332 43.4176 20.3675 44.4124C21.1018 45.4073 22.2635 45.996 23.5 46ZM23.5 40.7878C23.8456 40.7878 24.177 40.9251 24.4215 41.1694C24.6658 41.4139 24.8031 41.7453 24.8031 42.0909C24.8031 42.4365 24.6658 42.7678 24.4215 43.0123C24.177 43.2566 23.8456 43.3939 23.5 43.3939C23.1544 43.3939 22.8231 43.2566 22.5786 43.0123C22.3343 42.7678 22.197 42.4365 22.197 42.0909C22.197 41.7453 22.3343 41.4139 22.5786 41.1694C22.8231 40.9251 23.1544 40.7878 23.5 40.7878Z" fill="#FE5A49" stroke="#ECEEF0" stroke-width="0.895833"/>
<path d="M19.5909 31.89V25.1516C19.5909 24.6861 19.3425 24.256 18.9394 24.0232C18.5363 23.7904 18.0395 23.7904 17.6363 24.0232C17.2332 24.256 16.9848 24.6861 16.9848 25.1516V31.89C16.9836 32.2353 16.8464 32.5663 16.6031 32.8113L14.7566 34.6576C13.6343 34.1198 12.3231 34.1464 11.2233 34.7294C10.1235 35.3124 9.36579 36.3826 9.18102 37.6135C8.99626 38.8445 9.40651 40.09 10.2867 40.97C11.1668 41.8502 12.4125 42.2605 13.6432 42.0757C14.8741 41.8909 15.9444 41.1332 16.5273 40.0334C17.1105 38.9337 17.1369 37.6227 16.5991 36.5001L18.4456 34.6537H18.4454C19.1811 33.9224 19.5936 32.9273 19.5908 31.89L19.5909 31.89ZM13.0757 39.485C12.7301 39.485 12.3988 39.3477 12.1543 39.1034C11.91 38.8589 11.7727 38.5275 11.7727 38.1819C11.7727 37.8363 11.91 37.505 12.1543 37.2605C12.3988 37.0162 12.7301 36.8789 13.0757 36.8789C13.4213 36.8789 13.7527 37.0162 13.9972 37.2605C14.2415 37.505 14.3788 37.8363 14.3788 38.1819C14.3788 38.5275 14.2415 38.8589 13.9972 39.1034C13.7527 39.3477 13.4213 39.485 13.0757 39.485Z" fill="#FE5A49" stroke="#ECEEF0" stroke-width="0.895833"/>
<path d="M33.9243 42.0909C35.1145 42.0941 36.2412 41.5551 36.9855 40.6263C37.7298 39.6976 38.0105 38.4804 37.7478 37.3195C37.4854 36.1587 36.7083 35.1807 35.6368 34.6626C34.5654 34.1444 33.3163 34.1427 32.2434 34.6576L30.3969 32.8112V32.8113C30.1536 32.5663 30.0163 32.2353 30.0151 31.89V25.1516C30.0151 24.6861 29.7667 24.256 29.3636 24.0232C28.9605 23.7904 28.4637 23.7904 28.0606 24.0232C27.6575 24.256 27.4091 24.6861 27.4091 25.1516V31.89C27.4064 32.9274 27.8188 33.9225 28.5545 34.6537L30.401 36.5002H30.4008C29.8189 37.7101 29.9001 39.1344 30.6159 40.2704C31.3317 41.4061 32.5817 42.0939 33.9243 42.0909ZM35.2273 38.1818C35.2273 38.5274 35.09 38.8588 34.8457 39.1032C34.6012 39.3476 34.2699 39.4848 33.9243 39.4848C33.5787 39.4848 33.2473 39.3476 33.0028 39.1032C32.7585 38.8588 32.6212 38.5274 32.6212 38.1818C32.6212 37.8362 32.7585 37.5048 33.0028 37.2603C33.2473 37.016 33.5787 36.8787 33.9243 36.8787C34.2699 36.8787 34.6012 37.016 34.8457 37.2603C35.09 37.5048 35.2273 37.8362 35.2273 38.1818Z" fill="#FE5A49" stroke="#ECEEF0" stroke-width="0.895833"/>
<path d="M5.90911 32.9697H13.0758C13.5413 32.9697 13.9714 32.7213 14.2042 32.3182C14.437 31.9151 14.437 31.4183 14.2042 31.0151C13.9714 30.612 13.5413 30.3636 13.0758 30.3636H5.90911C5.5635 30.3636 5.23214 30.2264 4.98765 29.9821C4.74333 29.7376 4.60607 29.4062 4.60607 29.0606V12.1212H42.3939V29.0606C42.3939 29.4062 42.2567 29.7376 42.0124 29.9821C41.7679 30.2264 41.4365 30.3636 41.0909 30.3636H33.9242C33.4587 30.3636 33.0286 30.612 32.7958 31.0151C32.5631 31.4183 32.563 31.9151 32.7958 32.3182C33.0286 32.7213 33.4587 32.9697 33.9242 32.9697H41.0909C42.1272 32.9685 43.1209 32.5562 43.8537 31.8234C44.5865 31.0906 44.9988 30.0969 45 29.0606V6.90909C44.9988 5.87279 44.5865 4.87906 43.8537 4.14628C43.1209 3.4135 42.1272 3.00122 41.0909 3H5.90909C4.87279 3.00119 3.87906 3.41347 3.14628 4.14628C2.41349 4.87908 2.00122 5.87279 2 6.90909V29.0606C2.00119 30.0969 2.41347 31.0906 3.14628 31.8234C3.87908 32.5562 4.87281 32.9685 5.90911 32.9697ZM5.90911 5.60606H41.0909C41.4365 5.60606 41.7679 5.74332 42.0124 5.98764C42.2567 6.23213 42.394 6.56349 42.394 6.9091V9.51516H4.60609V6.9091C4.60609 6.56349 4.74335 6.23213 4.98767 5.98764C5.23215 5.74332 5.5635 5.60606 5.90911 5.60606Z" fill="#FE5A49" stroke="#ECEEF0" stroke-width="0.895833"/>
<path d="M7.86363 7.5606C7.86363 8.28031 7.28031 8.86363 6.5606 8.86363C5.84089 8.86363 5.25757 8.28031 5.25757 7.5606C5.25757 6.84089 5.84089 6.25757 6.5606 6.25757C7.28031 6.25757 7.86363 6.84089 7.86363 7.5606Z" fill="#FE5A49" stroke="#ECEEF0" stroke-width="0.895833"/>
<path d="M11.1213 7.5606C11.1213 8.28031 10.5379 8.86363 9.81823 8.86363C9.09852 8.86363 8.5152 8.28031 8.5152 7.5606C8.5152 6.84089 9.09852 6.25757 9.81823 6.25757C10.5379 6.25757 11.1213 6.84089 11.1213 7.5606Z" fill="#FE5A49" stroke="#ECEEF0" stroke-width="0.895833"/>
<path d="M14.3788 7.5606C14.3788 8.28031 13.7955 8.86363 13.0758 8.86363C12.3561 8.86363 11.7728 8.28031 11.7728 7.5606C11.7728 6.84089 12.3561 6.25757 13.0758 6.25757C13.7955 6.25757 14.3788 6.84089 14.3788 7.5606Z" fill="#FE5A49" stroke="#ECEEF0" stroke-width="0.895833"/>
</svg>
