<svg width="48" height="48" viewBox="0 0 48 48" fill="none" xmlns="http://www.w3.org/2000/svg">
<path d="M19.5887 4.30044C20.4157 4.30044 21.0851 4.97514 21.0851 5.80387V5.80604C21.0851 6.63695 20.4157 7.30948 19.5887 7.30948C18.7618 7.30948 18.0924 6.63695 18.0924 5.80604V5.80387C18.0924 4.97514 18.7618 4.30044 19.5887 4.30044ZM24.1383 4.30044H27.4117C28.2387 4.30044 28.9102 4.97514 28.908 5.80605C28.908 6.63695 28.2387 7.30948 27.4117 7.30948H24.1361C23.3091 7.30948 22.6398 6.63478 22.6398 5.80387C22.6398 4.97297 23.3113 4.30044 24.1361 4.30044H24.1383ZM22.2684 15.473C22.5232 15.473 22.7801 15.5381 23.0155 15.6747C23.7323 16.0891 23.9785 17.009 23.5639 17.7293L20.8044 22.5324C20.5259 23.0162 20.0228 23.2853 19.5067 23.2853C19.2519 23.2853 18.995 23.2202 18.7596 23.0835C18.0427 22.6691 17.7966 21.7493 18.2112 21.029L20.9707 16.2258C21.2492 15.742 21.7523 15.473 22.2684 15.473ZM27.4957 15.0131C27.7483 15.0131 28.0053 15.0781 28.2428 15.2148C28.9575 15.6292 29.2037 16.549 28.7891 17.2693L23.0191 27.3098C22.7427 27.7936 22.2396 28.0626 21.7214 28.0626C21.4666 28.0626 21.2097 27.9976 20.9743 27.8609C20.2575 27.4443 20.0135 26.5245 20.4259 25.8064L26.1972 15.7659C26.4736 15.2821 26.9767 15.0131 27.4949 15.0131H27.4957ZM14.4343 34.9353H32.5678C33.3926 34.9353 34.0641 35.61 34.0641 36.4409C34.0641 37.2718 33.3926 37.9443 32.5678 37.9443H14.4343C13.6073 37.9443 12.9358 37.2696 12.9358 36.4387C12.9358 35.61 13.6073 34.9353 14.4343 34.9353ZM23.5006 39.8296C24.3276 39.8296 24.9969 40.5021 24.9969 41.333C24.9969 42.164 24.3276 42.8387 23.5006 42.8387C22.6736 42.8387 22.0021 42.164 22.0021 41.333C22.0021 40.5021 22.6736 39.8296 23.5006 39.8296ZM35.163 6.0028e-06H11.9514L11.9493 0.00217513H11.9471C9.79221 0.00217513 8.04104 1.73559 8 3.88989V44.1101C8.04103 46.2666 9.79433 48 11.9514 48H35.163C37.2575 48 38.9611 46.2666 39 44.1101V3.88989C38.9611 1.73559 37.2575 6.0028e-06 35.163 6.0028e-06Z" fill="black"/>
</svg>
