<svg width="48" height="48" viewBox="0 0 48 48" fill="none" xmlns="http://www.w3.org/2000/svg">
<g clip-path="url(#clip0_516_3877)">
<path fill-rule="evenodd" clip-rule="evenodd" d="M31.9905 1C32.6377 1 33.1615 1.52373 33.1615 2.17101V4.37352H35.8259C39.6752 4.37352 42.8061 7.50689 42.8061 11.3561V24.0654C45.944 26.2885 48 29.9361 48 34.0649C48 40.8235 42.5016 46.3243 35.743 46.3243C30.9126 46.3243 26.7409 43.5089 24.7443 39.4422H6.98017C3.13093 39.4422 0 36.3088 0 32.4596V11.3561C0 7.50689 3.13107 4.37352 6.98017 4.37352H9.64464V2.17101C9.64464 1.52373 10.1684 1 10.8157 1C11.4629 1 11.9867 1.52373 11.9867 2.17101V4.37352H30.8189V2.17101C30.8189 1.52373 31.3426 1 31.9899 1H31.9905ZM35.7436 24.1503C30.275 24.1503 25.8262 28.5987 25.8262 34.0653C25.8262 39.5314 30.2746 43.9827 35.7436 43.9827C41.2098 43.9827 45.6586 39.532 45.6586 34.0653C45.6586 28.5991 41.2102 24.1503 35.7436 24.1503ZM39.2795 30.4601C39.7369 30.0026 40.4779 30.0026 40.9354 30.4601C41.3928 30.9152 41.3928 31.6585 40.9354 32.116L35.38 37.669C35.1604 37.8885 34.8631 38.012 34.552 38.012C34.241 38.012 33.9436 37.8885 33.7241 37.669L30.5496 34.4967C30.0922 34.037 30.0922 33.2983 30.5496 32.8386C31.007 32.3811 31.748 32.3811 32.2055 32.8386L34.5521 35.1852L39.2795 30.4601ZM40.4642 15.518H2.34265V32.4591C2.34265 35.0183 4.42391 37.0996 6.9809 37.0996H23.8805C23.6312 36.1276 23.4848 35.1144 23.4848 34.0646C23.4848 27.306 28.9831 21.8076 35.7442 21.8076C37.4161 21.8076 39.0103 22.1461 40.4649 22.7567L40.4642 15.518ZM9.64533 6.71499H6.98085C4.42386 6.71499 2.3426 8.79626 2.3426 11.3555V13.1761H40.4642V11.3555C40.4642 8.79626 38.3829 6.71499 35.8259 6.71499H33.1615V8.61329C33.1615 9.25827 32.6377 9.7843 31.9905 9.7843C31.3432 9.7843 30.8194 9.25827 30.8194 8.61329V6.71499H11.9872V8.61329C11.9872 9.25827 11.4635 9.7843 10.8162 9.7843C10.169 9.7843 9.64523 9.25827 9.64523 8.61329L9.64533 6.71499Z" fill="#FE5A49" stroke="#ECEEF0" stroke-width="0.2"/>
</g>
<defs>
<clipPath id="clip0_516_3877">
<rect width="48" height="48" fill="white"/>
</clipPath>
</defs>
</svg>
