<svg width="601" height="236" viewBox="0 0 601 236" fill="none" xmlns="http://www.w3.org/2000/svg">
<path d="M359 7H372V34.1766H359V7ZM359 62.8244H372V90H359V62.8244Z" fill="#130754"/>
<path d="M359 43H372V56H359V43Z" fill="#FFCA00"/>
<path d="M339 30H351.919V120H339V30ZM380.081 85.6986H393V112.774H380.081V85.6986ZM380.081 30.0319H393V57.1079H380.081V30.0319Z" fill="#130754"/>
<path d="M380 64H393V77H380V64Z" fill="#E70488"/>
<path d="M401 0H414V90H401V0Z" fill="#130754"/>
<path d="M525.164 56.3004H551.999C559.462 56.3004 565.417 50.1439 565.417 42.6561V17.0515C565.417 9.76491 559.286 4.31217 551.999 3.08092C543.004 1.59832 533.23 1.67367 525.164 3.1057C513.806 5.11605 511.746 9.31251 511.746 17.0768V22.5568H538.606V30.7206H501.67C493.855 30.7206 487.02 35.4193 484.885 44.3397C482.422 54.5665 482.322 60.9488 484.885 71.6279C486.794 79.5684 491.342 85.2467 499.157 85.2467H508.379V72.9851C508.379 64.1153 516.042 56.3004 525.164 56.3004Z" fill="#347AB4"/>
<path d="M596.936 48.4123C595.001 40.648 591.333 34.7932 583.518 34.7932H573.443V46.7036C573.443 55.9505 565.602 63.7395 556.657 63.7395H529.821C522.484 63.7395 516.403 70.0219 516.403 77.3839V102.964C516.403 110.25 522.735 114.522 529.821 116.608C538.314 119.095 546.48 119.548 556.657 116.608C563.417 114.647 570.075 110.703 570.075 102.964V97.6001H543.265V89.3193H583.518C591.333 89.3193 594.222 83.8666 596.936 75.7005C599.75 67.2826 599.625 59.1916 596.936 48.4123Z" fill="#FFCA1D"/>
<path d="M523.48 17.8157C520.803 17.8157 518.633 15.6212 518.633 12.9204C518.657 10.1953 520.803 8.00073 523.48 8.00073C526.133 8.00073 528.327 10.2193 528.327 12.9204C528.327 15.6212 526.157 17.8157 523.48 17.8157Z" fill="white"/>
<path d="M556.048 112.454C553.371 112.454 551.2 110.259 551.2 107.558C551.224 104.833 553.37 102.639 556.048 102.639C558.7 102.639 560.895 104.857 560.895 107.558C560.895 110.259 558.725 112.454 556.048 112.454Z" fill="white"/>
<path d="M52.9045 24.9653L33.202 15.0231L11.5664 25.8156L31.8108 35.9781L52.9045 24.9653ZM61.943 29.5281L82.6045 39.9616L61.1705 50.7212L40.897 40.5447L61.943 29.5281ZM89.5402 15.1694L110.77 25.8147L91.7817 35.3472L71.0798 24.9025L89.5402 15.1694ZM80.4033 10.5841L61.2905 1L42.3867 10.4369L62.0817 20.365L80.4033 10.5841ZM65.4623 92.8788V118.956L88.6139 107.403L88.5924 81.3138L65.4623 92.8788ZM88.5811 72.2069L88.5558 46.3928L65.4623 57.8734V83.6988L88.5811 72.2069ZM116.373 67.3722V93.5528L96.6239 103.404L96.6089 77.3444L116.373 67.3722ZM116.373 58.2175V32.5609L96.5873 42.3972L96.6023 68.2628L116.373 58.2175Z" fill="#4CABCF"/>
<path d="M57.2878 57.8735L41.6981 50.0295V83.9107C41.6981 83.9107 22.6219 43.3329 20.8603 39.6851C20.6334 39.2126 19.6959 38.6998 19.4578 38.5713C16.0191 36.777 6 31.7051 6 31.7051V91.5841L19.8609 99.0148V67.7023C19.8609 67.7023 38.7319 103.961 38.9259 104.36C39.1228 104.756 41.0062 108.572 43.035 109.916C45.7256 111.703 57.2803 118.65 57.2803 118.65L57.2878 57.8735Z" fill="#4C75CF"/>
<g clip-path="url(#clip0_39_346)">
<path d="M216.367 119.449C205.861 118.441 196.442 115.321 188.909 110.355L187.327 109.311L186.946 106.374C186.524 103.104 186.082 97.9038 186.086 96.1929V95.0773L191 95.037C193.703 95.0145 196.735 94.9123 197.739 94.8026C199.332 94.6339 199.647 94.6629 200.225 95.0257C205.583 98.3876 213.767 100.618 220.729 100.61C231.884 100.603 241.742 96.4901 249.7 88.526C253.219 85.002 255.153 82.3545 257.265 78.1573C263.067 66.6513 263.191 53.486 257.614 41.9688C252.092 30.5688 241.325 22.1932 229.02 19.7323C225.849 19.0948 221.48 18.7582 218.869 18.9448L216.741 19.0995L217.279 18.3373C217.579 17.9201 219.553 15.806 221.67 13.6423L225.52 9.70947L223.937 8.23759C221.699 6.14978 218.608 3.57166 216.291 1.85416L214.306 0.386032L215.052 0.209782C216.529 -0.138031 225.146 -0.0320932 228.229 0.371032C253.564 3.68134 273.786 22.0835 279.276 46.8288C281.073 54.9185 281.11 63.8792 279.386 72.251C277.206 82.8167 271.665 93.2351 263.971 101.229C253.995 111.588 240.63 118.02 226.31 119.353C223.922 119.576 218.252 119.628 216.367 119.449ZM178.879 102.251C175.483 98.8601 170.895 93.3523 171.207 93.041C171.265 92.982 172.547 93.1873 174.052 93.491C176.337 93.956 181.479 94.736 182.255 94.736C182.372 94.736 182.471 95.7063 182.474 96.941C182.478 98.9623 182.69 101.859 183.054 104.851C183.156 105.694 183.119 106.038 182.932 106.038C182.786 106.038 180.958 104.335 178.879 102.251ZM186.086 90.1367C186.086 88.317 186.558 82.8963 186.733 82.706C186.818 82.6179 187.532 83.3979 188.323 84.4423C189.111 85.4895 190.898 87.4704 192.293 88.8438L194.827 91.3488H186.086V90.1367ZM181.45 90.9682C177.67 90.5032 169.993 89.0276 169.383 88.6498C169.196 88.5326 169.42 87.6242 170.171 85.4529C171.163 82.5963 173.503 76.9826 173.869 76.5907C173.96 76.4951 175.195 77.0192 176.612 77.7589C178.032 78.4985 180.09 79.4876 181.193 79.9629L183.192 80.8198L183.054 81.8529C182.735 84.2623 182.478 87.522 182.474 89.2573C182.472 90.2829 182.39 91.107 182.299 91.0892C182.203 91.0704 181.823 91.016 181.45 90.9682ZM165.017 81.2454C163.784 77.9993 162.817 74.6579 162.128 71.2545C161.429 67.7904 161.451 67.7651 163.604 69.4639C164.6 70.2514 166.508 71.6388 167.842 72.5435C169.173 73.4529 170.265 74.232 170.265 74.2723C170.265 74.3163 169.848 75.2538 169.339 76.3526C168.653 77.8697 168.005 79.4033 167.394 80.952C166.834 82.3798 166.302 83.6332 166.208 83.7317C166.116 83.8301 165.582 82.7098 165.017 81.2454ZM181.273 75.4001C179.538 74.6023 176.389 72.9945 175.96 72.6907C175.872 72.6279 178.194 68.801 179.377 67.062L180.303 65.696L180.464 66.3767C181.5 70.7126 182.124 72.9176 182.768 74.5217C183.19 75.5717 183.522 76.4295 183.511 76.4295C183.496 76.4257 182.489 75.9645 181.273 75.4001ZM169.445 68.6154C167.006 66.912 162.929 63.7048 162.673 63.2904C162.433 62.8985 170.738 54.8492 171.386 54.8492C171.493 54.8492 172.393 55.9179 173.385 57.2229C174.382 58.5298 175.71 60.1892 176.344 60.9101C176.978 61.632 177.497 62.2695 177.497 62.3276C177.497 62.3857 176.7 63.6279 175.722 65.0848C174.748 66.5388 173.616 68.3192 173.214 69.0326C172.811 69.747 172.353 70.3329 172.192 70.3329C172.034 70.3329 170.796 69.5604 169.445 68.6154ZM161 57.7817C161.033 54.9438 161.989 48.4798 162.927 44.7663C163.857 41.0904 163.674 41.1157 165.362 44.4551C166.175 46.0704 167.292 48.1432 167.837 49.0657L168.83 50.7363L167.116 52.2045C166.175 53.0107 164.413 54.6467 163.201 55.8373C161.989 57.0307 161 57.9063 161 57.7817ZM179.169 57.0382C177.385 54.9101 175.253 51.9551 175.366 51.7723C175.52 51.5229 178.153 49.736 180.296 48.4254C181.731 47.546 181.842 47.5132 181.698 47.997C181.171 49.8017 180.423 53.5957 180.215 55.5157C180.08 56.7495 179.948 57.7854 179.919 57.8145C179.89 57.8445 179.553 57.4929 179.169 57.0382ZM171.328 45.7226C168.984 41.6388 166.277 35.7982 166.592 35.5085C167.098 35.036 175.689 32.6304 178.227 32.2498L179.216 32.0998L179.713 35.1138C179.985 36.7732 180.442 39.101 180.732 40.2917L181.256 42.4592L179.399 43.5138C178.377 44.097 176.421 45.3195 175.055 46.2317L172.573 47.891L171.328 45.7226ZM185.207 36.3692C184.97 35.1027 184.748 33.8332 184.543 32.561L184.353 31.286L185.506 31.151C186.144 31.0779 187.88 30.9495 189.367 30.8698L192.073 30.7263L191.146 31.7154C189.616 33.3485 187.876 35.5423 186.745 37.2748L185.679 38.9032L185.207 36.3692ZM170.057 28.1042C171.602 25.4857 176.484 19.271 178.138 17.8104L178.626 17.3782V26.877L176.648 27.2613C174.927 27.5951 171.251 28.4923 169.943 28.8954C169.543 29.0201 169.552 28.9535 170.057 28.1042ZM183.867 20.4392C183.907 17.3229 183.998 14.7157 184.072 14.6426C184.325 14.3857 194.904 16.4913 195.303 16.8757C195.341 16.9132 195.022 18.0954 194.596 19.5092C194.168 20.9267 193.64 22.856 193.421 23.7973L193.021 25.5185L189.836 25.6592C188.082 25.736 186.005 25.8673 185.221 25.9517L183.793 26.1054L183.867 20.4392ZM198.965 25.0723C198.965 24.9692 199.862 21.7282 200.338 20.1167L200.786 18.6082L203.547 19.7435C207.205 21.2482 207.121 21.1938 206.304 21.5342C204.396 22.3367 201.251 23.8592 200.284 24.4563C199.258 25.0863 198.965 25.2223 198.965 25.0723ZM209.135 15.9898C208.326 15.5838 206.582 14.8142 205.26 14.2798L202.855 13.3095L203.089 12.6392C203.385 11.7898 206.696 5.15322 207.315 4.16416L207.78 3.42166L209.193 4.37322C211.043 5.62572 214.441 8.16728 215.562 9.14135L216.452 9.91478L214.09 12.6101C212.793 14.0895 211.479 15.6232 211.167 16.0151L210.603 16.7332L209.135 15.9898ZM194.332 10.7604C192.87 10.387 191.401 10.0379 189.927 9.71322L188.456 9.40947L190.447 8.22635C191.635 7.52748 192.842 6.86067 194.066 6.22666C195.805 5.34822 201.049 3.18728 201.162 3.30072C201.2 3.33728 200.797 4.22322 200.263 5.26759C199.731 6.31103 198.896 8.08009 198.409 9.20041C197.922 10.317 197.468 11.2948 197.398 11.3679C197.328 11.442 195.948 11.1673 194.332 10.7604Z" fill="#3EB049"/>
</g>
<line y1="167.5" x2="601" y2="167.5" stroke="black"/>
<line x1="0.5" y1="148" x2="0.499999" y2="168" stroke="black"/>
<line x1="600.5" y1="148" x2="600.5" y2="168" stroke="black"/>
<path d="M155.101 226L148.189 206.576H148.061C148.083 207.003 148.115 207.579 148.157 208.304C148.2 209.029 148.232 209.808 148.253 210.64C148.275 211.472 148.285 212.293 148.285 213.104V226H145.149V203.152H150.077L156.637 221.488H156.765L163.517 203.152H168.445V226H165.085V212.912C165.085 212.165 165.096 211.397 165.117 210.608C165.16 209.797 165.192 209.04 165.213 208.336C165.256 207.632 165.288 207.056 165.309 206.608H165.181L158.077 226H155.101ZM174.524 226V203.152H177.98V223.024H187.74V226H174.524ZM206.297 208.432C208.473 208.432 210.094 208.912 211.161 209.872C212.228 210.811 212.761 212.293 212.761 214.32V226H210.361L209.689 223.6H209.561C209.07 224.219 208.558 224.731 208.025 225.136C207.513 225.541 206.916 225.84 206.233 226.032C205.572 226.224 204.761 226.32 203.801 226.32C202.777 226.32 201.849 226.139 201.017 225.776C200.206 225.392 199.566 224.816 199.097 224.048C198.628 223.259 198.393 222.277 198.393 221.104C198.393 219.355 199.054 218.021 200.377 217.104C201.721 216.187 203.758 215.685 206.489 215.6L209.433 215.504V214.544C209.433 213.264 209.145 212.368 208.569 211.856C207.993 211.344 207.182 211.088 206.137 211.088C205.241 211.088 204.388 211.216 203.577 211.472C202.766 211.728 201.998 212.037 201.273 212.4L200.185 209.936C200.996 209.509 201.924 209.157 202.969 208.88C204.036 208.581 205.145 208.432 206.297 208.432ZM207.097 217.776C205.134 217.861 203.769 218.192 203.001 218.768C202.254 219.323 201.881 220.112 201.881 221.136C201.881 222.032 202.148 222.683 202.681 223.088C203.236 223.493 203.929 223.696 204.761 223.696C206.105 223.696 207.214 223.323 208.089 222.576C208.964 221.829 209.401 220.709 209.401 219.216V217.712L207.097 217.776ZM226.72 208.432C228.725 208.432 230.261 208.933 231.328 209.936C232.395 210.939 232.928 212.549 232.928 214.768V226H229.568V215.248C229.568 213.904 229.28 212.901 228.704 212.24C228.149 211.557 227.253 211.216 226.016 211.216C224.267 211.216 223.051 211.739 222.368 212.784C221.707 213.829 221.376 215.333 221.376 217.296V226H217.984V208.752H220.672L221.152 211.056H221.344C221.728 210.459 222.197 209.968 222.752 209.584C223.307 209.2 223.925 208.912 224.608 208.72C225.291 208.528 225.995 208.432 226.72 208.432ZM244.06 226.32C241.991 226.32 240.316 225.573 239.036 224.08C237.778 222.587 237.148 220.368 237.148 217.424C237.148 214.459 237.788 212.219 239.068 210.704C240.348 209.189 242.034 208.432 244.124 208.432C244.999 208.432 245.756 208.549 246.396 208.784C247.058 208.997 247.623 209.296 248.092 209.68C248.583 210.064 248.999 210.491 249.34 210.96H249.532C249.49 210.661 249.436 210.235 249.372 209.68C249.308 209.104 249.276 208.592 249.276 208.144V201.68H252.668V226H250.012L249.436 223.696H249.276C248.956 224.187 248.551 224.635 248.06 225.04C247.591 225.424 247.026 225.733 246.364 225.968C245.703 226.203 244.935 226.32 244.06 226.32ZM244.86 223.536C246.524 223.536 247.698 223.077 248.38 222.16C249.063 221.221 249.404 219.824 249.404 217.968V217.456C249.404 215.429 249.074 213.883 248.412 212.816C247.772 211.749 246.578 211.216 244.828 211.216C243.442 211.216 242.396 211.781 241.692 212.912C240.988 214.021 240.636 215.547 240.636 217.488C240.636 219.429 240.988 220.923 241.692 221.968C242.396 223.013 243.452 223.536 244.86 223.536ZM285.177 214.352C285.177 216.912 284.697 219.056 283.737 220.784C282.777 222.512 281.39 223.813 279.577 224.688C277.785 225.563 275.619 226 273.081 226H266.681V203.152H273.753C276.078 203.152 278.094 203.579 279.801 204.432C281.507 205.285 282.83 206.544 283.769 208.208C284.707 209.851 285.177 211.899 285.177 214.352ZM281.561 214.448C281.561 212.528 281.251 210.949 280.633 209.712C280.014 208.475 279.097 207.557 277.881 206.96C276.686 206.363 275.235 206.064 273.529 206.064H270.137V223.088H272.921C275.801 223.088 277.955 222.363 279.385 220.912C280.835 219.461 281.561 217.307 281.561 214.448ZM296.453 208.432C298.629 208.432 300.251 208.912 301.317 209.872C302.384 210.811 302.917 212.293 302.917 214.32V226H300.517L299.845 223.6H299.717C299.227 224.219 298.715 224.731 298.181 225.136C297.669 225.541 297.072 225.84 296.389 226.032C295.728 226.224 294.917 226.32 293.957 226.32C292.933 226.32 292.005 226.139 291.173 225.776C290.363 225.392 289.723 224.816 289.253 224.048C288.784 223.259 288.549 222.277 288.549 221.104C288.549 219.355 289.211 218.021 290.533 217.104C291.877 216.187 293.915 215.685 296.645 215.6L299.589 215.504V214.544C299.589 213.264 299.301 212.368 298.725 211.856C298.149 211.344 297.339 211.088 296.293 211.088C295.397 211.088 294.544 211.216 293.733 211.472C292.923 211.728 292.155 212.037 291.429 212.4L290.341 209.936C291.152 209.509 292.08 209.157 293.125 208.88C294.192 208.581 295.301 208.432 296.453 208.432ZM297.253 217.776C295.291 217.861 293.925 218.192 293.157 218.768C292.411 219.323 292.037 220.112 292.037 221.136C292.037 222.032 292.304 222.683 292.837 223.088C293.392 223.493 294.085 223.696 294.917 223.696C296.261 223.696 297.371 223.323 298.245 222.576C299.12 221.829 299.557 220.709 299.557 219.216V217.712L297.253 217.776ZM314.348 223.568C314.796 223.568 315.255 223.525 315.724 223.44C316.194 223.355 316.599 223.259 316.94 223.152V225.712C316.578 225.883 316.087 226.021 315.468 226.128C314.85 226.256 314.231 226.32 313.612 226.32C312.674 226.32 311.81 226.16 311.02 225.84C310.252 225.52 309.634 224.965 309.164 224.176C308.695 223.387 308.46 222.288 308.46 220.88V211.344H306.06V209.808L308.588 208.528L309.772 204.88H311.852V208.752H316.78V211.344H311.852V220.816C311.852 221.755 312.076 222.448 312.524 222.896C312.994 223.344 313.602 223.568 314.348 223.568ZM327.078 208.432C329.254 208.432 330.876 208.912 331.942 209.872C333.009 210.811 333.542 212.293 333.542 214.32V226H331.142L330.47 223.6H330.342C329.852 224.219 329.34 224.731 328.806 225.136C328.294 225.541 327.697 225.84 327.014 226.032C326.353 226.224 325.542 226.32 324.582 226.32C323.558 226.32 322.63 226.139 321.798 225.776C320.988 225.392 320.348 224.816 319.878 224.048C319.409 223.259 319.174 222.277 319.174 221.104C319.174 219.355 319.836 218.021 321.158 217.104C322.502 216.187 324.54 215.685 327.27 215.6L330.214 215.504V214.544C330.214 213.264 329.926 212.368 329.35 211.856C328.774 211.344 327.964 211.088 326.918 211.088C326.022 211.088 325.169 211.216 324.358 211.472C323.548 211.728 322.78 212.037 322.054 212.4L320.966 209.936C321.777 209.509 322.705 209.157 323.75 208.88C324.817 208.581 325.926 208.432 327.078 208.432ZM327.878 217.776C325.916 217.861 324.55 218.192 323.782 218.768C323.036 219.323 322.662 220.112 322.662 221.136C322.662 222.032 322.929 222.683 323.462 223.088C324.017 223.493 324.71 223.696 325.542 223.696C326.886 223.696 327.996 223.323 328.87 222.576C329.745 221.829 330.182 220.709 330.182 219.216V217.712L327.878 217.776ZM360.582 219.824C360.582 221.189 360.251 222.352 359.59 223.312C358.929 224.272 357.979 225.019 356.742 225.552C355.505 226.064 354.033 226.32 352.326 226.32C351.494 226.32 350.694 226.267 349.926 226.16C349.158 226.075 348.443 225.947 347.782 225.776C347.121 225.605 346.534 225.392 346.022 225.136V221.872C346.875 222.256 347.878 222.608 349.03 222.928C350.182 223.227 351.355 223.376 352.55 223.376C353.574 223.376 354.427 223.237 355.11 222.96C355.793 222.683 356.305 222.299 356.646 221.808C356.987 221.317 357.158 220.741 357.158 220.08C357.158 219.376 356.977 218.789 356.614 218.32C356.273 217.829 355.729 217.381 354.982 216.976C354.257 216.549 353.275 216.101 352.038 215.632C351.185 215.312 350.406 214.96 349.702 214.576C349.019 214.171 348.411 213.701 347.878 213.168C347.366 212.635 346.971 212.016 346.694 211.312C346.417 210.608 346.278 209.787 346.278 208.848C346.278 207.589 346.587 206.512 347.206 205.616C347.846 204.72 348.721 204.037 349.83 203.568C350.939 203.077 352.23 202.832 353.702 202.832C354.939 202.832 356.081 202.96 357.126 203.216C358.193 203.451 359.206 203.781 360.166 204.208L359.078 207.056C358.203 206.693 357.318 206.395 356.422 206.16C355.526 205.925 354.587 205.808 353.606 205.808C352.753 205.808 352.038 205.936 351.462 206.192C350.886 206.448 350.449 206.8 350.15 207.248C349.873 207.696 349.734 208.219 349.734 208.816C349.734 209.52 349.894 210.107 350.214 210.576C350.534 211.045 351.046 211.483 351.75 211.888C352.454 212.272 353.382 212.699 354.534 213.168C355.814 213.659 356.902 214.192 357.798 214.768C358.715 215.344 359.409 216.037 359.878 216.848C360.347 217.637 360.582 218.629 360.582 219.824ZM371.616 226.32C370.037 226.32 368.65 226.011 367.456 225.392C366.261 224.773 365.333 223.813 364.672 222.512C364.01 221.189 363.68 219.515 363.68 217.488C363.68 215.355 364.032 213.627 364.736 212.304C365.461 210.981 366.432 210.011 367.648 209.392C368.885 208.752 370.293 208.432 371.872 208.432C372.832 208.432 373.728 208.539 374.56 208.752C375.413 208.944 376.117 209.168 376.672 209.424L375.648 212.176C375.05 211.941 374.41 211.739 373.728 211.568C373.066 211.397 372.437 211.312 371.84 211.312C370.773 211.312 369.888 211.547 369.184 212.016C368.501 212.464 367.989 213.147 367.648 214.064C367.328 214.96 367.168 216.091 367.168 217.456C367.168 218.757 367.338 219.856 367.68 220.752C368.021 221.648 368.522 222.331 369.184 222.8C369.866 223.248 370.709 223.472 371.712 223.472C372.672 223.472 373.514 223.365 374.24 223.152C374.965 222.939 375.648 222.661 376.288 222.32V225.264C375.669 225.627 374.997 225.893 374.272 226.064C373.546 226.235 372.661 226.32 371.616 226.32ZM383.751 208.752V226H380.359V208.752H383.751ZM382.087 202.192C382.599 202.192 383.047 202.341 383.431 202.64C383.815 202.939 384.007 203.44 384.007 204.144C384.007 204.827 383.815 205.328 383.431 205.648C383.047 205.947 382.599 206.096 382.087 206.096C381.532 206.096 381.063 205.947 380.679 205.648C380.316 205.328 380.135 204.827 380.135 204.144C380.135 203.44 380.316 202.939 380.679 202.64C381.063 202.341 381.532 202.192 382.087 202.192ZM395.862 208.432C397.377 208.432 398.678 208.752 399.766 209.392C400.854 210.011 401.686 210.907 402.262 212.08C402.859 213.253 403.158 214.64 403.158 216.24V218.096H391.574C391.617 219.867 392.075 221.221 392.95 222.16C393.846 223.099 395.094 223.568 396.694 223.568C397.803 223.568 398.785 223.472 399.638 223.28C400.513 223.067 401.409 222.757 402.326 222.352V225.168C401.473 225.552 400.598 225.84 399.702 226.032C398.827 226.224 397.782 226.32 396.566 226.32C394.902 226.32 393.43 225.989 392.15 225.328C390.87 224.667 389.867 223.685 389.142 222.384C388.438 221.061 388.086 219.44 388.086 217.52C388.086 215.579 388.406 213.936 389.046 212.592C389.707 211.248 390.614 210.224 391.766 209.52C392.939 208.795 394.305 208.432 395.862 208.432ZM395.862 211.056C394.646 211.056 393.665 211.451 392.918 212.24C392.193 213.029 391.766 214.149 391.638 215.6H399.766C399.766 214.704 399.627 213.915 399.35 213.232C399.073 212.549 398.646 212.016 398.07 211.632C397.494 211.248 396.758 211.056 395.862 211.056ZM416.126 208.432C418.132 208.432 419.668 208.933 420.734 209.936C421.801 210.939 422.334 212.549 422.334 214.768V226H418.974V215.248C418.974 213.904 418.686 212.901 418.11 212.24C417.556 211.557 416.66 211.216 415.422 211.216C413.673 211.216 412.457 211.739 411.774 212.784C411.113 213.829 410.782 215.333 410.782 217.296V226H407.39V208.752H410.078L410.558 211.056H410.75C411.134 210.459 411.604 209.968 412.158 209.584C412.713 209.2 413.332 208.912 414.014 208.72C414.697 208.528 415.401 208.432 416.126 208.432ZM434.491 226.32C432.912 226.32 431.525 226.011 430.331 225.392C429.136 224.773 428.208 223.813 427.547 222.512C426.885 221.189 426.555 219.515 426.555 217.488C426.555 215.355 426.907 213.627 427.611 212.304C428.336 210.981 429.307 210.011 430.523 209.392C431.76 208.752 433.168 208.432 434.747 208.432C435.707 208.432 436.603 208.539 437.435 208.752C438.288 208.944 438.992 209.168 439.547 209.424L438.523 212.176C437.925 211.941 437.285 211.739 436.603 211.568C435.941 211.397 435.312 211.312 434.715 211.312C433.648 211.312 432.763 211.547 432.059 212.016C431.376 212.464 430.864 213.147 430.523 214.064C430.203 214.96 430.043 216.091 430.043 217.456C430.043 218.757 430.213 219.856 430.555 220.752C430.896 221.648 431.397 222.331 432.059 222.8C432.741 223.248 433.584 223.472 434.587 223.472C435.547 223.472 436.389 223.365 437.115 223.152C437.84 222.939 438.523 222.661 439.163 222.32V225.264C438.544 225.627 437.872 225.893 437.147 226.064C436.421 226.235 435.536 226.32 434.491 226.32ZM450.018 208.432C451.533 208.432 452.834 208.752 453.922 209.392C455.01 210.011 455.842 210.907 456.418 212.08C457.015 213.253 457.314 214.64 457.314 216.24V218.096H445.73C445.773 219.867 446.231 221.221 447.106 222.16C448.002 223.099 449.25 223.568 450.85 223.568C451.959 223.568 452.941 223.472 453.794 223.28C454.669 223.067 455.565 222.757 456.482 222.352V225.168C455.629 225.552 454.754 225.84 453.858 226.032C452.983 226.224 451.938 226.32 450.722 226.32C449.058 226.32 447.586 225.989 446.306 225.328C445.026 224.667 444.023 223.685 443.298 222.384C442.594 221.061 442.242 219.44 442.242 217.52C442.242 215.579 442.562 213.936 443.202 212.592C443.863 211.248 444.77 210.224 445.922 209.52C447.095 208.795 448.461 208.432 450.018 208.432ZM450.018 211.056C448.802 211.056 447.821 211.451 447.074 212.24C446.349 213.029 445.922 214.149 445.794 215.6H453.922C453.922 214.704 453.783 213.915 453.506 213.232C453.229 212.549 452.802 212.016 452.226 211.632C451.65 211.248 450.914 211.056 450.018 211.056Z" fill="black"/>
<defs>
<clipPath id="clip0_39_346">
<rect width="120" height="120" fill="white" transform="translate(161)"/>
</clipPath>
</defs>
</svg>
