<?xml version="1.0" encoding="UTF-8"?>
<svg width="1200pt" height="1200pt" version="1.1" viewBox="0 0 1200 1200" xmlns="http://www.w3.org/2000/svg">
 <path d="m450 243.74c0-113.81-92.438-206.26-206.26-206.26-113.82 0-206.26 92.438-206.26 206.26 0 113.82 92.438 206.26 206.26 206.26 113.82 0 206.26-92.438 206.26-206.26zm-375 0c0-93 75.75-168.74 168.74-168.74 92.992 0 168.74 75.75 168.74 168.74 0 36.375-11.625 69.938-31.125 97.5-35.438-38.062-85.312-60-137.63-60-52.316 0-102.19 21.938-137.63 60-19.5-27.562-31.125-61.125-31.125-97.5z"/>
 <path d="m318.74 187.5c0 41.438-33.562 75-75 75s-75-33.562-75-75 33.562-75 75-75 75 33.562 75 75"/>
 <path d="m956.26 750c-113.81 0-206.26 92.438-206.26 206.26 0 113.82 92.438 206.26 206.26 206.26 113.82 0 206.26-92.438 206.26-206.26 0-113.82-92.438-206.26-206.26-206.26zm88.312 163.31-112.5 112.5c-3.75 3.5625-8.4375 5.4375-13.312 5.4375s-9.5625-1.875-13.312-5.4375l-56.25-56.25c-7.3125-7.3125-7.3125-19.312 0-26.625s19.312-7.3125 26.625 0l42.938 43.125 99.188-99.375c7.3125-7.3125 19.312-7.3125 26.625 0s7.3125 19.312 0 26.625z"/>
 <path d="m693.74 937.5h-309.37c-87.938 0-159.37-71.438-159.37-159.37s71.438-159.37 159.37-159.37h140.63c10.312 0 18.75-8.4375 18.75-18.75s-8.4375-18.75-18.75-18.75h-140.63c-108.56 0-196.87 88.312-196.87 196.87s88.312 196.87 196.87 196.87h309.37c10.312 0 18.75-8.4375 18.75-18.75s-8.4375-18.75-18.75-18.75z"/>
 <path d="m506.26 262.5h309.37c87.938 0 159.37 71.438 159.37 159.37s-71.438 159.37-159.37 159.37h-170.44l24.188-24.188c7.3125-7.3125 7.3125-19.125 0-26.438s-19.125-7.3125-26.438 0l-56.25 56.25c-7.3125 7.3125-7.3125 19.125 0 26.438l56.25 56.25c3.75 3.75 8.4375 5.4375 13.312 5.4375s9.5625-1.875 13.312-5.4375c7.3125-7.3125 7.3125-19.125 0-26.438l-24.188-24.188h170.44c108.56 0 196.87-88.312 196.87-196.87s-88.312-196.87-196.87-196.87h-309.37c-10.312 0-18.75 8.4375-18.75 18.75s8.4375 18.75 18.75 18.75z"/>
</svg>
