<?xml version="1.0" encoding="UTF-8"?>
<svg width="1200pt" height="1200pt" version="1.1" viewBox="0 0 1200 1200" xmlns="http://www.w3.org/2000/svg">
 <path d="m990.82 136.69h-94.539l0.003906-6.1133c0-18.637-15.113-33.75-33.75-33.75-18.637 0-33.75 15.113-33.75 33.75v6.1133h-195v-6.1133c0-18.637-15.113-33.75-33.75-33.75-18.637 0-33.75 15.113-33.75 33.75v6.1133h-195v-6.1133c0-18.637-15.113-33.75-33.75-33.75-18.637 0-33.75 15.113-33.75 33.75v6.1133h-94.613c-92.625 0-167.96 75.336-167.96 167.96v630.6c0 92.625 75.336 167.96 167.96 167.96h781.65c92.625 0 167.96-75.336 167.96-167.96l0.003906-630.64c-0.039062-92.625-75.34-167.93-167.96-167.93zm-390.82 742.91c-132.19 0-239.77-107.55-239.77-239.74s107.55-239.74 239.77-239.74c132.23 0 239.77 107.55 239.77 239.74s-107.59 239.74-239.77 239.74z"/>
 <path d="m600 467.62c-94.949 0-172.24 77.289-172.24 172.24 0 94.988 77.289 172.24 172.24 172.24s172.24-77.289 172.24-172.24c0-94.988-77.289-172.24-172.24-172.24zm91.238 163.43-100.57 81.039c-6 4.875-13.5 7.4609-21.148 7.4609-1.2734 0-2.5508-0.074219-3.8633-0.22656-8.9258-1.0117-17.137-5.5859-22.688-12.676l-39.566-50.398c-11.512-14.664-8.9258-35.887 5.6992-47.398 14.699-11.551 35.852-8.9609 47.398 5.6992l18.449 23.512 73.949-59.551c14.512-11.738 35.812-9.375 47.477 5.1016 11.668 14.512 9.3789 35.773-5.1328 47.438z"/>
</svg>
