<?xml version="1.0" encoding="UTF-8"?>
<svg width="1200pt" height="1200pt" version="1.1" viewBox="0 0 1200 1200" xmlns="http://www.w3.org/2000/svg">
 <path d="m368.4 375.6v-148.8c0-66 54-120 120-120s120 54 120 120v147.6c44.398-34.801 73.199-90 73.199-151.2 0-106.8-86.398-193.2-193.2-193.2-106.8-0.003906-194.4 86.395-194.4 193.2 0 61.199 28.801 116.4 74.398 152.4z"/>
 <path d="m931.2 542.4c-44.398-6-81.602 28.801-81.602 72v-36c0-37.199-26.398-69.602-62.398-74.398-44.398-6-81.602 28.801-81.602 72v-36c0-37.199-26.398-69.602-62.398-74.398-44.398-6-81.602 28.801-81.602 72l0.003906-310.8c0-39.602-32.398-72-72-72-39.602 0-72 32.398-72 72v556.8c0 8.3984-10.801 10.801-15.602 3.6016-26.398-45.602-58.801-109.2-58.801-110.4-16.801-34.801-60-49.199-94.801-32.398-34.801 16.801-49.199 60-32.398 94.801 2.3984 3.6016 64.801 129.6 123.6 213.6 75.602 106.8 140.4 157.2 172.8 178.8 32.398 22.801 66 36 86.398 36h183.6c32.398 0 61.199-15.602 80.398-43.199l33.602-49.199c64.801-93.602 99.602-208.8 99.602-326.4l-0.003906-132.01c-2.3984-37.199-28.801-69.602-64.801-74.402z"/>
</svg>
