<?xml version="1.0" encoding="UTF-8"?>
<svg width="1200pt" height="1200pt" version="1.1" viewBox="0 0 1200 1200" xmlns="http://www.w3.org/2000/svg">
 <path d="m129.79 1152.3c21.234 18.75 53.578 16.875 72.516-4.2188l101.2-113.77c1.5938-1.7812 2.4375-4.1719 2.2969-6.5625-0.1875-2.3906-1.2656-4.6406-3.0469-6.2812l-63.094-56.156v0.046875c-1.8281-1.6406-4.2188-2.4844-6.6562-2.2969-2.3906 0.14062-4.6875 1.2188-6.2812 3l-101.2 113.67v0.046875c-18.75 21.188-16.875 53.578 4.1719 72.469zm859.92-999.05c-1.5 5.4375-6.9844 8.7188-12.469 7.4531s-9-6.7031-7.875-12.234l12.094-51.656c1.3125-5.5781 6.9375-9.0938 12.516-7.7812 5.625 1.3125 9.1406 6.9375 7.8281 12.516zm-25.594 119.81h-0.046875c-4.4062-3.7031-5.0156-10.219-1.3125-14.672 3.6562-4.4062 10.219-5.0156 14.625-1.3125l28.406 23.578v-0.046875c4.2188 3.75 4.6875 10.172 1.0781 14.484s-9.9844 5.0156-14.391 1.5zm43.781-60.141h-0.046875c-2.7656 0.375-5.5781-0.42188-7.7812-2.1094-2.2031-1.7344-3.6562-4.2656-3.9375-7.0781-0.32812-2.7656 0.46875-5.5312 2.25-7.7344 1.7344-2.1562 4.3125-3.5625 7.0781-3.7969l70.219-8.1562c2.7656-0.375 5.5781 0.375 7.7812 2.1094 2.2031 1.6875 3.6562 4.2188 3.9844 7.0312 0.28125 2.7656-0.51562 5.5781-2.2969 7.7344-1.7344 2.2031-4.3125 3.5625-7.0781 3.8438zm-495.79 543c16.172-16.266 41.625-18.844 60.703-6.0938 19.125 12.703 26.531 37.172 17.766 58.359-8.7656 21.234-31.266 33.281-53.812 28.781-22.5-4.4531-38.672-24.234-38.672-47.156-0.046875-12.703 5.0156-24.938 14.016-33.891zm33.891-224.39c21.891 0.046875 39.609 17.766 39.656 39.656v102.19c-0.375 21.656-18 38.953-39.656 38.953-21.609 0-39.234-17.297-39.609-38.953v-102.19c0.046875-21.844 17.719-39.609 39.609-39.656zm-158.39-87.609c-0.70312-4.9219-1.2656-9.8906-1.6875-14.859-0.65625-7.3125-0.98438-14.672-0.98438-22.031h-0.046875c0-66.844 26.859-130.87 74.625-177.61 47.766-46.781 112.36-72.281 179.21-70.828 66.797 1.4531 130.22 29.812 175.87 78.609l99.703-75.797-38.531-38.531c-7.3125-7.5-18.656-9.2812-27.938-4.4062l-6.8906 3.5625h-0.046875c-10.359 5.3438-21.844 8.2031-33.516 8.3438-11.672 0-23.203-2.7188-33.656-7.9219-6.1875-3.0938-12.516-5.9062-19.031-8.625s-12.891-5.1094-19.406-7.3594v-0.046875c-11.109-3.6094-21.188-9.8438-29.438-18.141-8.1562-8.3438-14.25-18.516-17.766-29.625l-2.3438-7.3594h-0.046875c-1.5469-4.875-4.5938-9.0938-8.6719-12.094-4.1719-3-9.1406-4.5469-14.203-4.5h-58.922c-10.453-0.1875-19.781 6.5625-22.828 16.594l-2.4375 7.3594c-7.0312 22.641-24.656 40.453-47.156 47.766-6.5625 2.25-13.078 4.7344-19.5 7.3594-6.375 2.625-12.844 5.5312-18.938 8.625v0.046875c-21.141 10.734-46.172 10.594-67.172-0.42188l-6.8906-3.5625h-0.046875c-9.2344-4.875-20.625-3.0938-27.938 4.4062l-41.719 41.719c-7.5469 7.2656-9.375 18.703-4.4062 27.938l3.4688 6.8906 0.046875 0.046875c11.016 21 11.156 46.031 0.375 67.172-3 6.1875-5.9062 12.516-8.625 19.031s-5.0625 12.891-7.3125 19.5l0.046875-0.046875c-7.3594 22.547-25.172 40.125-47.812 47.156l-7.3594 2.3438v0.046875c-9.9844 3.1406-16.734 12.422-16.641 22.875v58.922c-0.14062 10.5 6.6562 19.828 16.641 22.969l7.3594 2.3438c11.156 3.5156 21.281 9.6094 29.625 17.766 5.1562 5.1094 9.5625 10.969 12.984 17.391 1.0781-1.2656 2.1094-2.5312 3.2344-3.7969h-0.046875c16.781-18.75 35.859-35.297 56.859-49.125zm426 133.97c11.438 28.781 18.188 59.156 20.016 90.047 0.375 6.9844 0.51562 14.016 0.46875 21 2.3438 0.9375 4.5938 1.9688 6.8438 3.0938l6.8906 3.4688c9.2344 4.9688 20.672 3.1875 27.938-4.4062l41.672-41.672h0.046875c7.5-7.3594 9.2812-18.703 4.3594-27.984l-3.4688-6.8906c-11.016-21-11.156-46.078-0.42188-67.172 3-6.1406 5.8594-12.516 8.5312-18.938 2.7188-6.4219 5.1094-12.891 7.3594-19.5h0.046875c7.3594-22.547 25.125-40.125 47.766-47.203l7.3594-2.3438h0.046875c4.8281-1.5938 9.0469-4.5938 12.094-8.6719 2.9531-4.1719 4.5-9.1875 4.4531-14.297v-58.875c0.046875-5.1094-1.5-10.078-4.4531-14.203-3.0469-4.125-7.2656-7.1719-12.094-8.7188l-7.3594-2.3438h-0.046875c-22.641-7.0781-40.406-24.656-47.766-47.203-1.8281-5.4844-3.7969-10.734-5.8594-15.844-0.98438-2.5312-2.0625-5.0625-3.0938-7.4062l-67.078 18.891 0.046875-0.046875c6.8906 14.578 12.375 29.812 16.312 45.469 20.859 82.547-2.0156 170.02-60.656 231.79zm-438.56 338.58c-7.0312-5.2031-13.875-10.734-20.531-16.641-6.6094-5.9062-12.938-12.047-18.938-18.422l-70.219 78.891 39.469 35.062zm437.72-247.36c-4.875-82.875-48.047-158.81-116.77-205.4-68.719-46.641-155.21-58.594-234.05-32.484-78.797 26.156-140.95 87.469-168.24 165.94-27.234 78.422-16.453 165.1 29.203 234.47 45.656 69.375 120.94 113.58 203.76 119.58 82.828 6.0469 163.74-26.812 218.95-88.828 47.203-52.922 71.391-122.48 67.125-193.26zm-125.26-143.44c42.141 37.547 67.641 90.234 70.922 146.58s-15.938 111.66-53.391 153.84c-37.547 42.141-90.281 67.641-146.63 70.922-56.344 3.2812-111.7-15.984-153.84-53.484-42.188-37.547-67.688-90.281-70.969-146.63-3.2812-56.344 15.984-111.7 53.531-153.84 37.5-42.141 90.234-67.688 146.63-70.969 56.344-3.2344 111.66 15.984 153.84 53.531z"/>
</svg>
