<svg xmlns="http://www.w3.org/2000/svg" width="1200pt" height="1200pt" version="1.1" viewBox="0 0 1200 1200">
 <path d="m491.25 495c0 49.707-40.293 90-90 90s-90-40.293-90-90 40.293-90 90-90 90 40.293 90 90" fill="#fe5a49"/>
 <path d="m401.25 615c-67.5 0-120 52.5-120 120v150h48.75l11.25 202.5h120l11.25-202.5h48.75v-150c0-67.5-56.25-120-120-120z" fill="#fe5a49"/>
 <path d="m877.5 240c0 70.418-57.082 127.5-127.5 127.5s-127.5-57.082-127.5-127.5 57.082-127.5 127.5-127.5 127.5 57.082 127.5 127.5" fill="#fe5a49"/>
 <path d="m750 408.75c-93.75 0-168.75 75-168.75 168.75v210h67.5l18.75 300h168.75l18.75-300h67.5v-210c-3.75-93.75-78.75-168.75-172.5-168.75z" fill="#fe5a49"/>
</svg>